<svg xmlns="http://www.w3.org/2000/svg" xmlns:xlink="http://www.w3.org/1999/xlink" width="512" zoomAndPan="magnify" viewBox="0 0 384 383.999986" height="512" preserveAspectRatio="xMidYMid meet" version="1.0"><defs><g/></defs><g fill="#000000" fill-opacity="1"><g transform="translate(72.249669, 254.993973)"><g><path d="M 117.976562 -116.394531 C 114.417969 -119.359375 108.6875 -120.941406 100.785156 -120.941406 C 93.667969 -120.941406 89.324219 -120.742188 87.9375 -120.347656 C 83.988281 -119.164062 81.023438 -117.1875 78.652344 -114.617188 C 76.28125 -111.652344 74.5 -105.921875 73.316406 -97.621094 C 71.140625 -85.371094 69.757812 -76.28125 69.164062 -70.550781 C 69.164062 -69.757812 68.96875 -68.574219 68.574219 -66.792969 C 68.175781 -65.015625 67.585938 -62.84375 66.992188 -60.074219 C 66.398438 -57.308594 66.003906 -55.136719 65.609375 -53.160156 C 63.632812 -44.859375 62.25 -40.117188 61.457031 -38.734375 C 60.667969 -39.917969 59.285156 -45.253906 57.109375 -54.738281 L 54.148438 -70.550781 C 53.554688 -76.082031 52.761719 -81.617188 51.578125 -86.753906 C 50.390625 -91.890625 49.601562 -95.449219 49.402344 -97.621094 C 48.613281 -105.527344 47.03125 -111.257812 44.660156 -114.617188 C 42.882812 -116.59375 39.324219 -118.570312 33.792969 -120.347656 C 32.210938 -120.742188 28.257812 -120.941406 21.738281 -120.941406 C 14.625 -120.941406 9.289062 -119.164062 5.335938 -115.804688 C 3.558594 -114.222656 2.171875 -112.445312 1.382812 -110.46875 C 0.394531 -108.492188 0 -106.121094 0 -103.351562 C 0 -100.585938 0 -98.414062 0.199219 -96.832031 C 0.394531 -95.054688 0.988281 -92.484375 1.777344 -88.925781 C 2.570312 -85.371094 2.964844 -83.195312 3.160156 -82.40625 C 5.136719 -70.945312 7.507812 -61.457031 10.277344 -53.75 C 14.820312 -40.3125 18.179688 -30.433594 20.15625 -23.910156 C 21.34375 -19.960938 24.109375 -15.214844 28.851562 -10.078125 C 34.1875 -3.753906 41.894531 -0.394531 51.773438 0 C 53.355469 0.199219 55.726562 0.199219 59.085938 0.199219 C 60.46875 0.199219 62.445312 0.394531 65.214844 0.394531 C 67.78125 0.59375 69.757812 0.59375 71.339844 0.59375 C 72.722656 0.59375 74.5 0.59375 76.476562 0.199219 C 78.453125 -0.199219 80.230469 -0.789062 81.8125 -1.582031 C 86.949219 -3.558594 90.902344 -6.125 93.273438 -9.089844 C 98.015625 -14.226562 100.980469 -18.378906 101.773438 -21.34375 C 101.96875 -21.933594 102.363281 -23.121094 102.957031 -24.703125 C 103.351562 -26.28125 103.945312 -27.863281 104.539062 -29.445312 C 105.132812 -31.027344 105.722656 -32.605469 106.121094 -34.1875 L 112.445312 -53.75 C 114.816406 -60.273438 117.1875 -69.757812 119.558594 -82.40625 C 119.558594 -83.195312 120.152344 -85.566406 120.941406 -89.125 C 121.730469 -92.683594 122.324219 -95.25 122.523438 -97.03125 C 122.71875 -98.808594 122.917969 -101.179688 123.113281 -103.945312 C 123.113281 -106.710938 122.71875 -109.082031 121.929688 -111.058594 C 120.941406 -113.035156 119.558594 -114.816406 117.976562 -116.394531 Z M 103.15625 -110.664062 C 102.957031 -110.46875 102.5625 -110.269531 102.167969 -110.269531 C 101.773438 -110.269531 101.375 -110.269531 101.179688 -110.269531 L 100.785156 -116.789062 C 100.980469 -116.59375 101.773438 -116.394531 102.957031 -116 C 102.957031 -115.804688 102.957031 -115.40625 103.15625 -114.816406 C 103.351562 -114.023438 103.550781 -113.628906 103.550781 -113.234375 C 103.550781 -113.035156 103.351562 -112.246094 103.15625 -110.664062 Z M 91.496094 -116 L 93.078125 -115.605469 C 93.273438 -113.234375 93.472656 -111.652344 93.472656 -110.863281 C 93.078125 -110.863281 92.484375 -110.664062 92.089844 -110.269531 C 91.496094 -110.664062 91.101562 -111.257812 91.101562 -111.851562 C 91.101562 -112.445312 91.101562 -113.234375 91.296875 -114.023438 C 91.296875 -114.816406 91.496094 -115.605469 91.496094 -116 Z M 19.367188 -114.023438 C 20.15625 -113.234375 20.355469 -111.851562 20.355469 -110.070312 L 18.179688 -108.886719 C 18.179688 -111.457031 18.574219 -113.234375 19.367188 -114.023438 Z M 27.863281 -112.246094 L 29.246094 -111.058594 L 27.269531 -109.480469 C 26.875 -109.875 27.074219 -110.863281 27.863281 -112.246094 Z M 35.769531 -109.480469 L 36.359375 -110.269531 L 36.757812 -110.070312 L 36.164062 -109.28125 Z M 114.816406 -105.328125 C 114.222656 -107.304688 114.222656 -108.886719 115.011719 -109.875 C 116 -108.886719 116.59375 -107.898438 116.59375 -106.910156 C 116.394531 -106.316406 116.394531 -105.527344 116.789062 -104.539062 C 115.804688 -104.144531 115.210938 -104.339844 114.816406 -105.328125 Z M 41.300781 -108.6875 L 42.683594 -107.304688 C 42.488281 -106.910156 42.289062 -106.710938 41.894531 -106.316406 C 41.5 -105.921875 41.300781 -105.527344 41.300781 -105.527344 L 43.476562 -104.539062 L 42.09375 -102.5625 C 41.894531 -102.5625 41.695312 -102.5625 41.695312 -102.761719 L 41.5 -102.761719 C 40.707031 -105.132812 40.511719 -107.109375 41.300781 -108.6875 Z M 90.308594 -103.75 L 87.542969 -102.363281 L 87.542969 -108.492188 L 87.742188 -108.6875 C 88.335938 -107.898438 88.730469 -107.503906 88.730469 -107.503906 C 88.335938 -105.921875 88.925781 -104.539062 90.308594 -103.75 Z M 98.414062 -108.292969 C 98.015625 -106.316406 98.015625 -105.132812 98.015625 -104.339844 C 97.820312 -103.351562 97.226562 -102.957031 96.042969 -102.957031 C 96.042969 -103.351562 95.84375 -103.75 95.84375 -104.339844 C 95.84375 -104.933594 95.84375 -105.328125 95.84375 -105.722656 C 95.644531 -107.304688 96.4375 -108.292969 98.414062 -108.292969 Z M 108.292969 -103.351562 C 107.503906 -102.957031 106.910156 -103.15625 106.910156 -103.945312 C 106.515625 -104.539062 106.121094 -104.933594 105.722656 -104.933594 C 105.328125 -104.933594 105.132812 -105.328125 105.132812 -106.121094 C 105.132812 -106.515625 105.132812 -107.109375 105.527344 -108.292969 L 106.121094 -108.292969 L 107.109375 -106.316406 L 108.492188 -106.121094 C 109.28125 -106.121094 109.675781 -105.722656 109.675781 -105.132812 C 109.675781 -104.339844 109.082031 -103.75 108.292969 -103.351562 Z M 13.242188 -107.898438 C 13.242188 -107.898438 13.4375 -108.097656 13.832031 -108.097656 L 15.019531 -106.316406 C 15.214844 -105.527344 15.414062 -104.539062 15.808594 -103.351562 C 15.808594 -102.761719 15.613281 -102.363281 15.613281 -102.363281 C 15.414062 -102.167969 15.214844 -102.167969 15.019531 -102.167969 C 14.625 -102.167969 14.425781 -102.167969 14.425781 -102.363281 C 14.226562 -102.363281 14.03125 -102.761719 13.832031 -103.351562 L 13.242188 -104.539062 C 12.84375 -105.722656 12.84375 -106.710938 13.242188 -107.898438 Z M 33.398438 -107.503906 C 33.398438 -106.121094 33.398438 -105.328125 33.792969 -104.933594 C 34.1875 -104.144531 33.988281 -103.351562 33 -102.363281 C 32.210938 -102.5625 31.816406 -103.15625 31.617188 -104.144531 C 31.222656 -104.933594 31.027344 -105.527344 30.828125 -105.921875 C 31.222656 -107.109375 31.421875 -107.699219 31.816406 -107.898438 C 32.015625 -107.898438 32.605469 -107.898438 33.398438 -107.503906 Z M 21.144531 -103.550781 C 21.933594 -105.328125 22.527344 -106.710938 23.121094 -107.699219 L 23.910156 -107.699219 L 23.910156 -104.339844 C 23.910156 -102.761719 23.121094 -101.773438 21.539062 -101.773438 C 21.539062 -101.96875 21.738281 -102.167969 21.738281 -102.5625 L 21.34375 -102.957031 C 20.949219 -103.15625 20.949219 -103.351562 21.144531 -103.550781 Z M 81.8125 -101.96875 C 81.8125 -101.96875 82.011719 -101.96875 82.207031 -102.167969 C 82.207031 -101.96875 82.207031 -101.773438 82.601562 -101.375 C 82.800781 -100.980469 83 -100.785156 83 -100.785156 L 82.40625 -95.644531 C 81.417969 -96.832031 81.21875 -98.808594 81.8125 -101.96875 Z M 100.980469 -101.773438 C 103.351562 -99.402344 103.15625 -97.621094 100.785156 -96.632812 C 100.585938 -97.425781 100.585938 -99.203125 100.980469 -101.773438 Z M 112.445312 -101.574219 C 111.257812 -100.390625 111.058594 -99.003906 111.457031 -97.621094 C 111.457031 -97.425781 111.457031 -97.226562 111.457031 -97.03125 C 111.257812 -96.632812 111.257812 -96.4375 111.257812 -96.4375 L 110.46875 -96.4375 C 110.070312 -98.414062 109.875 -99.402344 109.875 -99.796875 C 109.675781 -100.585938 109.875 -101.179688 110.269531 -101.574219 C 110.664062 -101.773438 111.257812 -101.773438 112.445312 -101.574219 Z M 27.074219 -101.179688 C 27.863281 -100.585938 28.0625 -99.992188 27.269531 -99.203125 C 26.480469 -99.992188 26.28125 -100.585938 27.074219 -101.179688 Z M 35.769531 -98.808594 C 35.769531 -99.203125 35.964844 -99.992188 35.964844 -101.179688 L 38.734375 -101.179688 C 38.335938 -99.796875 38.335938 -98.609375 38.335938 -97.820312 C 38.140625 -96.4375 37.152344 -95.84375 35.570312 -96.042969 C 35.570312 -96.238281 35.570312 -96.632812 35.570312 -97.226562 C 35.570312 -97.820312 35.769531 -98.414062 35.769531 -98.808594 Z M 91.890625 -101.179688 C 93.078125 -100.191406 93.078125 -98.609375 91.496094 -96.632812 C 91.101562 -97.425781 91.101562 -99.003906 91.890625 -101.179688 Z M 18.179688 -100.785156 C 18.972656 -100.191406 18.972656 -99.597656 18.574219 -98.808594 C 19.167969 -97.820312 19.367188 -97.226562 19.367188 -96.832031 C 19.367188 -96.4375 18.773438 -96.042969 17.984375 -95.449219 C 17.585938 -98.414062 17.585938 -100.191406 18.179688 -100.785156 Z M 8.695312 -96.042969 C 8.300781 -96.238281 8.300781 -96.832031 8.300781 -98.015625 C 8.496094 -99.003906 8.695312 -99.796875 8.695312 -100.585938 C 9.089844 -100.390625 9.484375 -100.191406 9.683594 -100.191406 C 9.878906 -99.796875 9.878906 -99.402344 9.683594 -99.203125 C 9.484375 -99.003906 9.484375 -98.414062 9.683594 -97.425781 C 9.683594 -96.4375 9.484375 -96.042969 8.695312 -96.042969 Z M 39.128906 -94.261719 C 38.734375 -94.65625 38.734375 -95.644531 39.128906 -96.832031 C 39.128906 -96.832031 39.324219 -96.632812 39.523438 -96.632812 C 39.523438 -96.238281 39.324219 -95.449219 39.128906 -94.261719 Z M 108.097656 -92.285156 C 108.097656 -91.890625 108.097656 -90.902344 107.898438 -89.324219 L 105.722656 -89.324219 L 105.722656 -94.460938 L 108.6875 -95.25 L 108.097656 -93.273438 Z M 86.949219 -93.273438 C 87.148438 -93.867188 88.136719 -94.460938 90.113281 -95.054688 L 89.71875 -93.867188 C 88.925781 -93.078125 88.53125 -92.285156 88.925781 -91.101562 C 88.925781 -89.71875 88.136719 -88.730469 86.949219 -88.335938 C 86.359375 -89.519531 86.359375 -91.101562 86.949219 -93.273438 Z M 78.058594 -88.730469 L 78.453125 -93.667969 C 78.453125 -93.667969 78.652344 -93.867188 79.046875 -94.066406 C 79.242188 -94.261719 79.441406 -94.460938 79.640625 -94.65625 L 80.035156 -94.261719 C 79.640625 -92.683594 80.035156 -91.695312 81.21875 -91.496094 C 80.230469 -89.71875 79.242188 -88.730469 78.058594 -88.730469 Z M 21.933594 -88.730469 L 21.933594 -94.460938 L 24.703125 -93.472656 C 24.308594 -93.078125 24.109375 -92.484375 24.109375 -91.695312 C 23.910156 -90.902344 23.714844 -90.308594 23.515625 -89.914062 C 23.121094 -89.324219 22.726562 -88.925781 21.933594 -88.730469 Z M 33.199219 -91.695312 L 32.605469 -88.730469 C 31.027344 -90.507812 31.421875 -92.484375 33.398438 -94.460938 C 33.398438 -94.066406 33.398438 -93.273438 33.199219 -91.695312 Z M 95.644531 -93.273438 C 95.644531 -94.066406 96.042969 -94.460938 96.832031 -94.261719 L 96.042969 -89.519531 L 95.644531 -89.519531 Z M 43.277344 -93.273438 C 42.488281 -92.878906 42.289062 -92.089844 42.289062 -90.902344 C 42.289062 -89.71875 41.894531 -88.925781 41.300781 -88.53125 C 40.90625 -91.296875 41.105469 -93.078125 41.5 -94.261719 C 41.894531 -94.066406 42.488281 -93.667969 43.277344 -93.273438 Z M 14.425781 -91.890625 L 16.996094 -90.507812 L 15.808594 -87.742188 C 14.625 -88.335938 13.832031 -89.125 13.636719 -89.914062 C 13.242188 -90.707031 13.4375 -91.890625 14.03125 -93.867188 C 14.03125 -93.867188 14.226562 -93.667969 14.625 -93.667969 C 14.820312 -93.667969 15.019531 -93.667969 15.214844 -93.667969 C 14.820312 -92.878906 14.625 -92.285156 14.425781 -91.890625 Z M 112.839844 -87.347656 L 109.675781 -83.988281 C 109.28125 -84.777344 109.480469 -86.160156 110.070312 -88.136719 C 110.863281 -87.742188 111.652344 -87.542969 112.839844 -87.347656 Z M 46.042969 -86.160156 L 47.230469 -87.742188 C 47.230469 -86.753906 46.835938 -86.160156 46.042969 -86.160156 Z M 83.589844 -83.988281 C 83.589844 -82.800781 83 -82.207031 81.8125 -81.8125 L 81.8125 -83.394531 C 82.207031 -84.183594 82.207031 -85.171875 82.011719 -85.964844 C 81.417969 -86.753906 81.617188 -87.148438 82.40625 -87.148438 C 82.601562 -87.148438 82.800781 -87.148438 83 -86.949219 C 83 -86.753906 83.195312 -86.554688 83.195312 -86.160156 C 83.195312 -85.765625 83.195312 -84.976562 83.589844 -83.988281 Z M 18.179688 -87.148438 L 19.761719 -85.964844 C 18.574219 -84.976562 18.574219 -83.988281 19.761719 -83.195312 C 19.960938 -82.800781 19.960938 -82.011719 19.5625 -81.21875 C 19.367188 -81.21875 18.972656 -81.417969 18.574219 -81.617188 C 18.179688 -81.8125 17.785156 -82.011719 17.785156 -82.207031 C 16.996094 -83.195312 16.996094 -84.777344 18.179688 -87.148438 Z M 35.570312 -86.949219 C 36.359375 -86.554688 36.757812 -86.160156 36.757812 -85.964844 C 36.757812 -85.765625 36.558594 -85.171875 36.164062 -84.382812 C 35.375 -84.777344 35.175781 -85.765625 35.570312 -86.949219 Z M 91.695312 -86.949219 L 92.878906 -83.988281 L 93.273438 -83.589844 L 91.695312 -82.011719 C 91.101562 -83.789062 91.101562 -85.371094 91.695312 -86.949219 Z M 103.15625 -83.394531 C 102.5625 -82.40625 101.574219 -82.207031 100.191406 -82.601562 L 100.980469 -86.753906 L 101.574219 -85.964844 C 101.96875 -85.566406 102.167969 -85.371094 102.5625 -85.171875 C 102.761719 -84.976562 102.957031 -84.777344 103.15625 -84.578125 C 103.15625 -84.382812 103.351562 -84.183594 103.351562 -83.988281 C 103.351562 -83.589844 103.15625 -83.394531 103.15625 -83.394531 Z M 27.074219 -85.566406 L 27.074219 -86.160156 C 27.074219 -86.554688 27.667969 -86.554688 28.457031 -86.160156 C 28.457031 -86.160156 28.65625 -85.964844 28.65625 -85.765625 C 27.863281 -85.765625 27.269531 -85.566406 27.074219 -85.566406 Z M 112.640625 -83 L 110.46875 -83.589844 C 110.863281 -83.988281 111.058594 -84.382812 111.257812 -84.382812 C 111.457031 -84.382812 111.652344 -84.382812 111.851562 -84.183594 C 112.046875 -83.988281 112.246094 -83.589844 112.640625 -83 Z M 29.246094 -84.382812 L 29.839844 -83.195312 C 29.839844 -82.207031 29.445312 -81.8125 28.65625 -82.207031 C 28.0625 -82.207031 27.863281 -82.40625 27.863281 -83.195312 C 28.0625 -83.988281 28.457031 -84.382812 29.246094 -84.382812 Z M 45.847656 -84.183594 C 47.03125 -84.183594 47.429688 -83.589844 47.230469 -82.800781 C 47.230469 -82.011719 46.636719 -81.617188 45.847656 -81.617188 C 45.253906 -82.40625 45.253906 -83.195312 45.847656 -84.183594 Z M 105.132812 -81.617188 C 106.121094 -80.824219 106.515625 -80.035156 106.316406 -79.441406 C 106.316406 -78.847656 106.316406 -78.257812 106.710938 -77.859375 C 107.109375 -77.070312 106.910156 -76.28125 105.722656 -75.882812 C 105.722656 -76.082031 105.527344 -76.476562 105.527344 -76.871094 C 105.527344 -77.269531 105.328125 -77.464844 105.328125 -77.859375 C 105.328125 -78.257812 105.132812 -78.453125 105.132812 -78.847656 C 104.539062 -79.640625 104.539062 -80.628906 105.132812 -81.617188 Z M 95.644531 -81.023438 C 95.644531 -81.023438 95.84375 -81.21875 96.042969 -81.21875 L 97.425781 -79.640625 L 97.820312 -78.453125 C 98.015625 -77.269531 98.015625 -76.675781 97.820312 -76.476562 C 97.621094 -76.082031 97.03125 -75.882812 96.042969 -75.6875 C 96.238281 -76.871094 96.042969 -78.058594 95.449219 -79.242188 C 95.25 -79.242188 95.25 -79.640625 95.449219 -80.035156 C 95.449219 -80.429688 95.644531 -80.824219 95.644531 -81.023438 Z M 86.949219 -81.023438 C 87.9375 -80.230469 87.9375 -79.441406 86.949219 -78.257812 C 86.160156 -79.242188 86.160156 -80.230469 86.949219 -81.023438 Z M 40.707031 -80.628906 L 42.683594 -79.046875 C 42.09375 -78.257812 41.695312 -77.859375 41.5 -77.664062 L 43.277344 -76.082031 L 41.105469 -74.304688 C 41.105469 -74.5 40.90625 -75.09375 40.511719 -76.28125 C 40.117188 -77.464844 40.117188 -78.058594 40.117188 -78.453125 C 40.117188 -78.652344 40.3125 -79.441406 40.707031 -80.628906 Z M 22.921875 -75.09375 C 21.738281 -76.871094 21.34375 -78.453125 22.132812 -80.035156 C 23.320312 -79.640625 23.515625 -79.046875 23.121094 -78.257812 C 22.726562 -77.664062 22.726562 -77.070312 23.320312 -76.675781 C 23.910156 -75.882812 23.714844 -75.488281 22.921875 -75.09375 Z M 31.027344 -79.835938 L 33 -79.835938 C 32.605469 -77.269531 32.410156 -75.882812 32.410156 -75.882812 C 32.410156 -75.488281 32.015625 -75.09375 31.617188 -74.699219 C 30.628906 -76.28125 30.433594 -78.058594 31.027344 -79.835938 Z M 15.808594 -74.304688 L 13.636719 -74.304688 C 13.636719 -74.5 13.4375 -75.292969 13.242188 -76.871094 C 12.84375 -78.257812 12.84375 -79.242188 13.242188 -79.640625 C 13.832031 -79.441406 14.226562 -79.046875 14.425781 -78.257812 C 14.425781 -77.464844 14.625 -77.070312 14.820312 -77.070312 C 15.613281 -75.882812 16.007812 -74.894531 15.808594 -74.304688 Z M 79.242188 -76.675781 L 77.859375 -75.6875 C 77.859375 -76.28125 78.058594 -76.675781 78.058594 -76.871094 C 78.058594 -76.871094 78.453125 -76.871094 79.242188 -76.675781 Z M 81.617188 -74.304688 C 82.800781 -73.511719 83.589844 -72.328125 84.183594 -70.746094 C 84.382812 -70.351562 84.183594 -69.757812 83.789062 -69.363281 C 83.589844 -68.96875 83.195312 -68.769531 82.800781 -68.574219 C 82.207031 -68.175781 81.8125 -67.980469 81.8125 -67.980469 C 81.417969 -71.140625 81.417969 -73.316406 81.617188 -74.304688 Z M 88.730469 -61.457031 L 87.347656 -61.855469 C 87.148438 -62.25 87.148438 -62.644531 87.148438 -63.238281 L 87.148438 -65.410156 L 90.113281 -67.386719 C 90.507812 -67.980469 90.707031 -69.164062 91.101562 -71.140625 L 91.101562 -74.304688 C 91.296875 -74.105469 91.695312 -73.910156 92.089844 -73.710938 C 92.484375 -73.511719 92.878906 -73.316406 93.273438 -73.316406 C 92.285156 -72.328125 92.089844 -71.339844 92.484375 -70.550781 C 92.878906 -69.757812 92.683594 -68.96875 92.089844 -68.175781 C 91.890625 -67.980469 91.101562 -66.792969 89.519531 -64.621094 L 89.71875 -63.632812 L 92.683594 -57.109375 C 93.078125 -55.726562 92.683594 -54.542969 91.296875 -53.75 L 90.707031 -55.53125 C 90.308594 -57.507812 90.113281 -59.085938 89.914062 -60.273438 C 89.71875 -60.46875 89.519531 -60.667969 89.324219 -61.0625 Z M 102.167969 -73.117188 C 101.773438 -73.117188 101.773438 -73.316406 101.773438 -73.710938 C 101.773438 -73.710938 101.96875 -73.910156 102.167969 -73.910156 C 102.5625 -73.910156 102.761719 -73.710938 102.957031 -73.316406 C 102.5625 -72.921875 102.167969 -72.921875 102.167969 -73.117188 Z M 27.074219 -73.910156 L 29.050781 -72.523438 L 27.667969 -70.945312 C 26.875 -71.339844 26.28125 -71.535156 26.085938 -71.933594 C 25.886719 -72.128906 25.886719 -72.328125 26.085938 -72.722656 C 26.085938 -72.921875 26.480469 -73.316406 27.074219 -73.910156 Z M 110.269531 -67.78125 L 109.480469 -71.933594 C 109.28125 -72.328125 109.28125 -72.921875 109.675781 -73.710938 L 111.652344 -73.710938 L 111.058594 -71.140625 C 110.664062 -70.550781 111.058594 -69.757812 112.046875 -68.96875 C 111.257812 -68.574219 110.664062 -68.175781 110.269531 -67.78125 Z M 35.964844 -73.316406 C 37.152344 -73.316406 37.347656 -72.921875 36.953125 -72.128906 C 36.558594 -70.945312 36.953125 -69.757812 38.140625 -68.96875 L 39.324219 -67.386719 C 38.734375 -67.386719 38.140625 -67.386719 37.347656 -67.386719 C 36.558594 -67.386719 36.164062 -67.585938 35.964844 -67.585938 C 34.976562 -69.757812 34.976562 -71.734375 35.964844 -73.316406 Z M 18.574219 -69.5625 L 17.785156 -67.78125 L 17.390625 -71.339844 L 17.585938 -71.339844 C 18.574219 -70.945312 18.972656 -70.351562 18.574219 -69.5625 Z M 102.5625 -68.96875 L 100.980469 -69.957031 C 101.773438 -69.957031 102.363281 -69.757812 102.5625 -68.96875 Z M 45.648438 -69.757812 L 48.019531 -67.585938 C 47.824219 -67.585938 47.625 -67.386719 47.429688 -67.1875 C 47.230469 -66.792969 47.03125 -66.792969 47.03125 -66.792969 C 46.636719 -66.792969 46.242188 -66.992188 46.042969 -67.585938 C 45.847656 -67.78125 45.648438 -68.175781 45.648438 -68.769531 C 45.648438 -69.164062 45.648438 -69.5625 45.648438 -69.757812 Z M 27.863281 -66.203125 C 27.074219 -66.597656 26.875 -67.386719 27.269531 -68.96875 L 29.640625 -68.96875 L 30.828125 -67.1875 C 30.628906 -67.1875 30.234375 -66.792969 29.839844 -66.398438 C 29.246094 -66.003906 28.851562 -65.804688 28.851562 -65.804688 C 28.851562 -65.804688 28.457031 -66.003906 27.863281 -66.203125 Z M 107.109375 -63.433594 L 105.132812 -61.65625 C 104.339844 -63.632812 104.339844 -65.214844 105.132812 -66.792969 C 105.328125 -66.792969 105.921875 -66.398438 106.910156 -66.003906 C 106.910156 -65.609375 106.910156 -65.214844 106.910156 -64.816406 C 106.910156 -64.226562 107.109375 -63.828125 107.109375 -63.433594 Z M 98.214844 -66.003906 L 95.84375 -64.621094 C 95.644531 -65.214844 95.644531 -65.609375 95.84375 -66.003906 C 95.84375 -66.203125 96.042969 -66.398438 96.4375 -66.398438 C 96.832031 -66.398438 97.425781 -66.203125 98.214844 -66.003906 Z M 33.792969 -60.074219 C 33.398438 -59.480469 32.804688 -59.285156 31.816406 -59.285156 C 31.027344 -60.867188 31.027344 -63.039062 31.617188 -66.203125 L 34.1875 -65.214844 L 32.804688 -62.445312 C 32.804688 -62.25 33 -62.050781 33.398438 -61.65625 C 33.59375 -61.261719 33.792969 -61.0625 33.792969 -61.0625 Z M 49.996094 -66.203125 C 49.996094 -65.804688 50.195312 -65.609375 50.390625 -65.410156 C 50.589844 -65.015625 50.789062 -64.816406 50.789062 -64.816406 C 50.390625 -64.421875 49.996094 -64.226562 49.601562 -64.027344 C 49.207031 -65.015625 49.207031 -65.804688 49.996094 -66.203125 Z M 77.664062 -66.203125 C 78.257812 -66.203125 78.847656 -66.003906 79.441406 -66.003906 C 79.046875 -65.214844 79.046875 -64.621094 79.046875 -64.226562 C 78.652344 -63.039062 78.847656 -62.445312 79.242188 -62.050781 C 79.640625 -61.65625 79.441406 -61.0625 79.046875 -60.074219 C 77.070312 -61.855469 76.675781 -63.828125 77.664062 -66.203125 Z M 42.882812 -62.644531 L 41.300781 -59.480469 C 40.117188 -61.855469 40.117188 -64.027344 41.300781 -66.003906 C 41.695312 -65.609375 42.09375 -65.015625 42.09375 -64.226562 C 42.09375 -63.238281 42.289062 -62.644531 42.882812 -62.644531 Z M 22.332031 -64.226562 L 22.726562 -64.226562 L 22.726562 -62.445312 L 22.332031 -62.445312 Z M 98.609375 -62.644531 C 98.214844 -61.65625 97.425781 -61.261719 96.238281 -61.261719 C 96.4375 -62.445312 96.632812 -63.039062 96.832031 -63.433594 C 97.226562 -63.828125 97.621094 -64.027344 98.015625 -64.027344 C 98.609375 -63.632812 98.808594 -63.238281 98.609375 -62.644531 Z M 102.167969 -55.136719 L 99.796875 -52.761719 L 99.796875 -54.148438 C 99.796875 -55.332031 99.597656 -56.121094 99.597656 -56.914062 C 99.203125 -58.296875 99.597656 -59.480469 100.390625 -60.273438 C 100.980469 -59.679688 101.375 -58.691406 101.574219 -57.507812 C 101.773438 -56.121094 101.96875 -55.332031 102.167969 -55.136719 Z M 38.335938 -57.902344 L 38.929688 -59.480469 L 39.324219 -59.085938 C 39.523438 -58.296875 39.128906 -57.902344 38.335938 -57.902344 Z M 72.523438 -56.320312 L 72.523438 -58.296875 L 72.921875 -59.085938 C 73.117188 -58.890625 73.316406 -58.691406 73.511719 -58.496094 C 73.511719 -58.097656 73.710938 -57.902344 73.710938 -57.507812 L 73.710938 -56.914062 L 74.5 -54.34375 L 72.328125 -54.9375 L 71.339844 -52.761719 C 70.945312 -53.949219 71.339844 -55.136719 72.523438 -56.320312 Z M 17.785156 -51.578125 L 17.390625 -58.496094 C 18.378906 -58.097656 18.972656 -57.507812 19.167969 -56.714844 C 19.167969 -56.320312 19.167969 -55.925781 19.167969 -55.53125 C 19.167969 -54.9375 19.367188 -54.542969 19.367188 -54.542969 L 19.761719 -54.542969 C 19.761719 -54.34375 19.960938 -54.34375 19.960938 -54.34375 C 19.960938 -54.34375 20.15625 -54.148438 20.355469 -54.148438 C 20.75 -53.75 20.949219 -53.554688 20.949219 -53.554688 C 20.949219 -52.960938 20.75 -52.566406 19.960938 -52.367188 C 18.773438 -51.972656 17.984375 -51.578125 17.785156 -51.578125 Z M 26.28125 -58.296875 C 27.074219 -57.902344 27.46875 -57.308594 27.269531 -56.714844 C 26.875 -55.925781 27.074219 -54.9375 27.46875 -53.949219 C 27.667969 -53.160156 27.269531 -52.566406 26.480469 -52.171875 C 26.480469 -52.566406 26.28125 -53.554688 26.085938 -55.136719 C 25.691406 -56.714844 25.886719 -57.703125 26.28125 -58.296875 Z M 48.414062 -54.9375 L 45.847656 -52.566406 C 45.054688 -54.34375 45.054688 -56.320312 45.847656 -58.296875 C 46.242188 -57.902344 46.835938 -57.308594 47.429688 -56.519531 Z M 36.164062 -55.332031 L 35.375 -56.914062 C 35.964844 -56.914062 36.359375 -56.714844 36.359375 -56.714844 C 36.359375 -56.519531 36.164062 -56.121094 36.164062 -55.332031 Z M 84.578125 -54.148438 C 84.183594 -53.355469 83.394531 -52.960938 82.207031 -53.355469 C 82.207031 -55.136719 82.601562 -56.320312 83.789062 -56.914062 C 84.777344 -55.726562 84.976562 -54.9375 84.578125 -54.148438 Z M 104.339844 -50.984375 L 104.339844 -52.761719 C 104.738281 -51.972656 104.738281 -51.378906 104.339844 -50.984375 Z M 96.238281 -52.367188 L 97.425781 -47.230469 C 97.03125 -47.230469 96.238281 -47.03125 95.449219 -46.636719 C 95.449219 -47.429688 95.644531 -48.414062 95.644531 -49.601562 C 95.644531 -50.789062 95.84375 -51.578125 96.238281 -52.367188 Z M 86.753906 -52.171875 C 87.347656 -51.578125 87.542969 -51.183594 87.542969 -51.183594 C 87.542969 -50.984375 87.148438 -50.589844 86.554688 -50.195312 C 86.160156 -50.789062 86.359375 -51.378906 86.753906 -52.171875 Z M 49.996094 -51.773438 C 49.996094 -51.378906 50.195312 -51.183594 50.195312 -51.183594 C 50.195312 -50.984375 50.390625 -50.789062 50.390625 -50.789062 C 49.996094 -49.996094 49.996094 -48.8125 50.589844 -47.429688 C 50.789062 -46.636719 50.390625 -46.242188 49.402344 -45.847656 C 48.8125 -48.414062 49.007812 -50.390625 49.996094 -51.773438 Z M 78.058594 -47.03125 C 78.058594 -47.230469 77.859375 -47.824219 77.464844 -49.007812 C 77.070312 -50.195312 77.070312 -50.984375 77.464844 -51.773438 L 79.242188 -51.773438 C 78.453125 -49.996094 78.652344 -48.613281 80.230469 -47.824219 C 79.835938 -47.03125 79.242188 -46.636719 78.058594 -47.03125 Z M 31.222656 -47.625 L 31.222656 -51.183594 L 33.59375 -50.195312 C 33.398438 -49.996094 33.199219 -49.601562 33 -49.207031 C 32.804688 -48.8125 32.605469 -48.414062 32.410156 -48.019531 C 32.015625 -47.625 31.617188 -47.625 31.222656 -47.625 Z M 41.105469 -51.183594 C 42.289062 -51.183594 42.488281 -50.789062 41.894531 -50.195312 C 40.90625 -49.007812 40.707031 -47.625 41.300781 -46.441406 C 41.300781 -46.242188 41.105469 -46.042969 41.105469 -46.042969 C 40.707031 -45.648438 40.707031 -45.453125 40.707031 -45.453125 C 39.917969 -47.824219 40.117188 -49.800781 41.105469 -51.183594 Z M 88.53125 -49.800781 C 89.324219 -48.613281 89.324219 -47.824219 88.53125 -47.03125 C 88.335938 -46.636719 87.9375 -46.636719 87.148438 -46.636719 C 86.753906 -46.636719 86.753906 -47.03125 86.753906 -47.824219 C 86.753906 -48.613281 87.347656 -49.402344 88.53125 -49.800781 Z M 21.738281 -49.007812 L 22.132812 -49.007812 L 22.132812 -48.019531 C 21.933594 -48.019531 21.738281 -47.824219 21.738281 -47.824219 C 21.539062 -48.019531 21.539062 -48.21875 21.539062 -48.414062 C 21.539062 -48.414062 21.539062 -48.613281 21.738281 -48.8125 Z M 92.089844 -44.066406 L 93.472656 -41.300781 L 91.496094 -39.128906 C 91.296875 -39.128906 91.101562 -39.128906 91.101562 -39.324219 C 90.707031 -40.707031 90.507812 -42.882812 90.308594 -45.847656 C 91.101562 -45.847656 91.695312 -45.253906 92.089844 -44.066406 Z M 36.757812 -41.695312 L 39.128906 -40.511719 L 39.128906 -40.117188 C 37.546875 -39.722656 36.359375 -39.722656 35.964844 -39.722656 L 35.964844 -44.066406 C 35.964844 -44.066406 36.359375 -43.871094 36.953125 -43.871094 C 37.347656 -43.871094 37.746094 -43.871094 38.140625 -44.066406 C 38.335938 -44.265625 38.335938 -44.859375 38.335938 -45.648438 C 38.734375 -44.660156 38.140625 -43.277344 36.757812 -41.695312 Z M 82.011719 -38.734375 C 82.011719 -39.128906 81.8125 -39.722656 81.617188 -40.707031 C 81.21875 -41.5 81.21875 -42.289062 81.21875 -43.082031 C 81.21875 -43.871094 81.617188 -44.660156 82.011719 -45.453125 C 82.601562 -44.660156 83 -44.265625 83.195312 -44.066406 L 83.789062 -42.289062 C 83.988281 -41.105469 83.988281 -40.511719 83.988281 -40.117188 C 83.789062 -39.722656 83.195312 -39.128906 82.011719 -38.734375 Z M 99.992188 -39.722656 C 99.402344 -42.488281 99.597656 -44.265625 100.390625 -45.453125 C 100.785156 -43.871094 100.980469 -42.882812 101.179688 -42.882812 C 101.179688 -42.683594 101.773438 -41.894531 102.957031 -40.511719 C 102.5625 -40.3125 101.96875 -40.117188 101.375 -39.917969 C 100.585938 -39.722656 100.191406 -39.722656 99.992188 -39.722656 Z M 72.722656 -42.289062 L 72.722656 -44.660156 L 72.921875 -44.859375 C 72.921875 -44.859375 73.117188 -45.054688 73.117188 -45.253906 C 73.910156 -44.859375 74.5 -44.464844 74.894531 -44.464844 L 74.105469 -43.476562 C 73.316406 -42.488281 73.511719 -41.695312 74.304688 -40.90625 L 75.292969 -39.523438 C 74.105469 -39.722656 73.316406 -39.917969 73.117188 -40.3125 C 72.722656 -40.707031 72.722656 -41.300781 72.722656 -42.289062 Z M 47.230469 -43.277344 C 46.441406 -42.882812 45.847656 -42.683594 45.847656 -42.488281 C 45.847656 -42.289062 46.042969 -41.894531 46.636719 -41.300781 C 47.03125 -40.90625 47.03125 -40.3125 46.835938 -39.917969 C 46.441406 -39.523438 46.242188 -39.523438 45.847656 -39.523438 C 45.453125 -39.523438 45.453125 -39.722656 45.453125 -40.3125 C 45.054688 -41.105469 45.054688 -41.695312 45.054688 -42.289062 C 45.054688 -42.488281 45.054688 -42.882812 45.453125 -43.476562 C 45.648438 -43.671875 46.042969 -43.871094 46.636719 -44.265625 C 47.03125 -44.660156 47.429688 -44.859375 47.625 -45.054688 C 48.21875 -44.265625 48.019531 -43.671875 47.230469 -43.277344 Z M 27.863281 -43.082031 L 26.875 -41.695312 L 26.480469 -41.695312 L 26.085938 -43.277344 C 26.875 -43.277344 27.46875 -43.082031 27.863281 -43.082031 Z M 51.773438 -38.734375 L 51.773438 -40.707031 C 52.171875 -40.117188 52.171875 -39.523438 51.773438 -38.734375 Z M 29.050781 -39.324219 L 27.074219 -37.546875 C 26.085938 -38.335938 25.886719 -38.929688 26.679688 -39.722656 C 27.074219 -40.117188 27.863281 -39.917969 29.050781 -39.324219 Z M 19.761719 -37.546875 L 19.5625 -38.734375 C 20.355469 -38.734375 20.949219 -38.335938 21.144531 -37.546875 C 21.144531 -37.347656 21.34375 -36.953125 21.34375 -36.558594 C 21.34375 -35.769531 21.539062 -34.976562 21.539062 -33.988281 C 20.75 -35.375 20.15625 -36.558594 19.761719 -37.546875 Z M 49.800781 -35.375 C 49.007812 -35.964844 49.007812 -36.953125 49.402344 -38.335938 L 50.789062 -36.953125 C 51.183594 -36.359375 50.789062 -35.769531 49.800781 -35.375 Z M 76.871094 -35.375 L 77.269531 -38.335938 L 79.242188 -37.347656 C 78.847656 -36.953125 78.058594 -36.359375 76.871094 -35.375 Z M 95.644531 -32.410156 C 95.644531 -32.804688 95.449219 -33.59375 95.054688 -35.175781 C 94.65625 -36.757812 94.855469 -37.746094 95.25 -38.140625 C 96.238281 -37.746094 97.03125 -37.746094 97.425781 -37.746094 C 97.621094 -36.953125 97.820312 -35.769531 98.214844 -34.582031 C 97.226562 -33.59375 96.4375 -32.804688 95.644531 -32.410156 Z M 39.917969 -37.546875 C 40.511719 -37.746094 41.300781 -37.546875 42.488281 -36.757812 C 41.300781 -36.164062 40.511719 -35.769531 40.117188 -35.375 C 39.917969 -35.769531 39.917969 -36.558594 39.917969 -37.546875 Z M 96.238281 -36.164062 C 95.644531 -35.375 95.84375 -34.582031 96.832031 -34.1875 C 97.03125 -34.976562 96.832031 -35.769531 96.238281 -36.164062 Z M 33.792969 -32.015625 C 33.59375 -31.816406 33.199219 -31.816406 32.804688 -31.816406 C 32.410156 -31.816406 32.015625 -32.015625 32.015625 -32.210938 C 31.421875 -32.605469 31.222656 -33.59375 31.617188 -35.375 C 32.015625 -34.582031 33 -33.988281 34.386719 -33.988281 C 34.582031 -33 34.386719 -32.410156 33.792969 -32.015625 Z M 43.082031 -35.175781 L 43.871094 -34.1875 L 41.105469 -32.210938 L 40.511719 -33.398438 Z M 68.175781 -32.605469 L 68.769531 -34.976562 C 68.769531 -34.78125 69.164062 -34.582031 69.5625 -34.386719 C 69.957031 -34.1875 70.152344 -33.988281 70.351562 -33.988281 L 68.574219 -32.210938 Z M 52.171875 -30.628906 C 51.773438 -31.027344 51.773438 -31.816406 52.171875 -32.804688 L 52.566406 -31.617188 C 52.566406 -31.421875 52.367188 -31.027344 52.171875 -30.628906 Z M 72.328125 -26.28125 L 72.328125 -31.617188 C 72.722656 -31.617188 73.117188 -31.421875 73.511719 -31.222656 C 73.710938 -31.027344 73.710938 -30.828125 73.710938 -30.433594 C 72.921875 -29.246094 73.316406 -27.46875 74.699219 -25.492188 L 74.699219 -25.292969 L 74.894531 -25.097656 C 73.316406 -24.503906 72.328125 -24.898438 72.328125 -26.28125 Z M 45.054688 -31.222656 C 46.042969 -30.828125 46.242188 -29.640625 45.453125 -28.0625 C 44.859375 -28.851562 44.660156 -29.839844 45.054688 -31.222656 Z M 54.738281 -24.703125 C 54.542969 -24.703125 54.34375 -24.703125 54.34375 -24.898438 L 54.148438 -24.898438 C 53.355469 -26.875 53.554688 -29.050781 54.542969 -31.222656 L 56.121094 -30.433594 C 55.726562 -29.445312 55.332031 -27.46875 54.738281 -24.703125 Z M 63.039062 -29.445312 C 63.039062 -29.445312 63.039062 -30.039062 63.433594 -31.222656 L 65.609375 -30.628906 C 64.621094 -29.445312 64.421875 -28.65625 65.214844 -27.863281 C 65.015625 -27.863281 64.816406 -28.0625 64.421875 -28.257812 C 64.027344 -28.457031 63.828125 -28.65625 63.632812 -28.851562 C 63.238281 -29.050781 63.039062 -29.246094 63.039062 -29.445312 C 63.039062 -27.863281 63.632812 -26.875 64.816406 -26.679688 C 64.621094 -26.28125 64.226562 -25.691406 63.828125 -24.898438 C 62.644531 -26.085938 62.25 -27.46875 63.039062 -29.445312 Z M 81.617188 -31.027344 C 82.40625 -30.234375 82.40625 -29.640625 81.617188 -28.851562 C 81.023438 -29.640625 81.023438 -30.234375 81.617188 -31.027344 Z M 34.78125 -24.703125 C 35.175781 -25.097656 35.175781 -26.085938 34.976562 -27.667969 C 34.78125 -29.246094 34.78125 -30.234375 34.78125 -30.628906 L 35.175781 -30.628906 C 35.964844 -29.050781 36.359375 -27.863281 36.757812 -27.074219 C 37.152344 -25.886719 36.558594 -24.898438 34.976562 -24.109375 L 34.78125 -24.503906 Z M 91.296875 -30.628906 L 93.667969 -26.480469 L 92.285156 -25.691406 C 91.496094 -25.292969 90.902344 -25.492188 90.507812 -26.480469 C 89.914062 -28.0625 90.113281 -29.445312 91.296875 -30.628906 Z M 83.789062 -26.679688 L 82.40625 -26.28125 C 82.800781 -27.074219 83.195312 -27.074219 83.789062 -26.679688 Z M 45.847656 -24.898438 C 45.847656 -25.691406 46.242188 -26.480469 47.429688 -26.875 C 47.625 -26.085938 47.824219 -25.691406 47.824219 -25.492188 C 47.824219 -25.097656 47.625 -24.898438 47.429688 -24.898438 C 47.03125 -24.898438 46.636719 -24.898438 45.847656 -24.898438 Z M 58.496094 -24.503906 L 60.46875 -22.332031 L 59.878906 -17.785156 L 58.691406 -16.996094 C 58.296875 -21.34375 58.097656 -23.714844 58.496094 -24.503906 Z M 48.8125 -21.933594 C 48.613281 -22.132812 48.613281 -22.921875 49.007812 -24.308594 L 50.589844 -22.726562 C 50.984375 -21.933594 50.984375 -21.539062 50.390625 -21.34375 C 49.601562 -20.949219 49.007812 -21.144531 48.8125 -21.933594 Z M 87.542969 -18.378906 C 86.753906 -17.984375 86.359375 -18.378906 86.359375 -19.167969 L 86.359375 -24.308594 C 86.949219 -23.910156 87.542969 -22.921875 87.9375 -21.738281 C 88.335938 -20.355469 88.925781 -19.5625 89.324219 -19.167969 C 88.136719 -18.574219 87.542969 -18.378906 87.542969 -18.378906 Z M 95.054688 -21.933594 L 95.054688 -23.910156 C 95.644531 -23.320312 95.644531 -22.726562 95.054688 -21.933594 Z M 43.082031 -18.378906 L 40.707031 -17.785156 C 40.707031 -18.179688 40.511719 -19.167969 40.511719 -20.355469 C 40.511719 -21.539062 40.511719 -22.332031 40.511719 -23.121094 C 40.90625 -22.921875 41.300781 -22.726562 41.695312 -22.527344 C 42.09375 -22.332031 42.09375 -22.132812 42.09375 -21.738281 C 41.695312 -20.949219 42.09375 -19.960938 42.882812 -18.773438 C 42.882812 -18.574219 43.082031 -18.378906 43.082031 -18.378906 Z M 78.058594 -22.132812 L 77.859375 -22.132812 L 77.464844 -22.921875 C 77.464844 -22.921875 77.664062 -23.121094 77.859375 -23.121094 C 77.859375 -22.726562 78.058594 -22.527344 78.058594 -22.132812 Z M 68.96875 -21.539062 C 68.574219 -21.933594 68.375 -22.132812 68.375 -22.332031 L 68.769531 -22.527344 C 68.96875 -22.527344 69.164062 -22.332031 69.164062 -22.132812 Z M 32.015625 -18.574219 C 32.015625 -17.785156 31.617188 -17.390625 30.828125 -17.785156 L 30.828125 -22.332031 C 31.816406 -21.34375 32.210938 -20.15625 32.015625 -18.574219 Z M 71.535156 -20.75 C 71.535156 -20.550781 71.535156 -20.355469 71.535156 -20.15625 C 71.535156 -19.761719 71.734375 -19.5625 71.734375 -19.5625 L 71.339844 -19.367188 C 71.339844 -19.5625 71.140625 -19.960938 70.945312 -20.550781 C 70.945312 -20.550781 71.140625 -20.75 71.535156 -20.75 Z M 79.441406 -18.179688 L 76.871094 -17.785156 L 77.269531 -19.367188 C 77.464844 -19.761719 77.859375 -20.15625 78.453125 -20.15625 C 78.847656 -20.15625 79.441406 -19.960938 79.835938 -19.5625 C 80.429688 -18.773438 80.230469 -18.378906 79.441406 -18.179688 Z M 50.984375 -19.761719 C 51.773438 -19.761719 51.972656 -19.167969 51.972656 -17.984375 C 50.589844 -18.179688 49.800781 -18.378906 49.402344 -18.378906 C 49.601562 -19.367188 50.195312 -19.761719 50.984375 -19.761719 Z M 72.328125 -10.078125 L 71.734375 -13.042969 L 70.152344 -13.042969 L 71.933594 -17.191406 C 73.511719 -16.203125 74.304688 -15.214844 73.910156 -14.226562 L 73.910156 -13.636719 C 74.105469 -12.648438 74.105469 -12.054688 74.105469 -11.855469 C 74.105469 -11.460938 73.910156 -11.265625 73.710938 -11.066406 C 73.511719 -10.671875 73.117188 -10.472656 72.328125 -10.078125 Z M 47.429688 -11.066406 C 47.429688 -10.472656 46.636719 -10.078125 45.253906 -9.683594 C 44.660156 -10.472656 44.859375 -11.265625 45.648438 -12.054688 C 46.441406 -12.84375 46.441406 -14.03125 45.648438 -15.214844 L 46.835938 -16.402344 L 47.230469 -16.007812 C 47.625 -15.019531 47.625 -13.4375 47.429688 -11.066406 Z M 83.589844 -11.265625 L 81.023438 -9.683594 C 81.023438 -10.472656 81.023438 -11.265625 81.023438 -12.054688 C 81.023438 -12.648438 81.023438 -13.4375 81.023438 -14.226562 C 81.023438 -15.019531 81.21875 -15.613281 81.617188 -16.402344 C 81.617188 -16.203125 81.8125 -16.007812 81.8125 -16.007812 C 81.8125 -16.007812 81.8125 -15.808594 82.011719 -15.808594 C 82.207031 -15.414062 82.40625 -15.214844 82.40625 -15.214844 L 82.40625 -13.832031 C 82.011719 -12.449219 82.601562 -11.660156 83.789062 -11.660156 Z M 55.53125 -10.472656 L 53.75 -8.496094 C 53.160156 -8.894531 53.160156 -10.078125 53.75 -12.253906 C 54.148438 -14.226562 54.542969 -15.414062 54.542969 -15.613281 L 54.9375 -15.613281 C 55.332031 -13.636719 55.726562 -12.253906 55.925781 -11.265625 C 55.925781 -10.867188 55.726562 -10.671875 55.53125 -10.472656 Z M 63.433594 -9.683594 C 63.238281 -9.683594 63.433594 -10.671875 63.828125 -12.648438 L 64.621094 -15.019531 L 66.597656 -15.613281 C 67.1875 -12.84375 66.203125 -10.867188 63.433594 -9.683594 Z M 37.152344 -14.820312 L 36.164062 -14.820312 L 36.164062 -15.214844 L 37.152344 -15.214844 Z M 37.746094 -9.289062 C 36.757812 -10.078125 36.359375 -10.867188 36.558594 -11.855469 C 37.347656 -11.460938 37.941406 -11.066406 38.140625 -10.867188 C 38.140625 -10.472656 38.140625 -10.078125 37.746094 -9.289062 Z M 49.800781 -7.90625 C 49.800781 -7.90625 50.789062 -8.101562 52.367188 -8.894531 C 52.367188 -7.3125 51.378906 -6.917969 49.800781 -7.90625 Z M 69.5625 -7.707031 L 68.96875 -4.347656 L 68.375 -4.347656 C 67.78125 -5.535156 67.386719 -6.519531 67.386719 -7.507812 C 67.386719 -8.300781 67.78125 -8.894531 68.574219 -8.894531 C 69.164062 -8.894531 69.5625 -8.496094 69.5625 -7.707031 Z M 69.5625 -7.707031 "/></g></g></g><g fill="#000000" fill-opacity="1"><g transform="translate(195.162217, 254.993973)"><g><path d="M 112.046875 -60.46875 C 112.046875 -61.0625 111.851562 -61.855469 111.851562 -62.644531 C 111.851562 -63.433594 111.652344 -64.621094 111.652344 -66.203125 C 111.652344 -67.78125 111.652344 -69.164062 111.652344 -70.550781 C 111.457031 -70.550781 111.457031 -75.292969 111.457031 -84.382812 C 111.457031 -93.472656 111.652344 -98.214844 111.652344 -98.609375 C 111.652344 -106.515625 111.058594 -111.257812 110.269531 -112.839844 C 107.109375 -118.371094 101.574219 -121.136719 94.066406 -121.136719 L 88.53125 -121.136719 C 80.824219 -121.136719 75.6875 -119.953125 72.921875 -117.976562 C 69.5625 -115.605469 67.980469 -111.457031 67.980469 -105.921875 C 67.980469 -101.375 67.980469 -95.84375 68.375 -89.125 C 68.574219 -82.40625 68.769531 -76.675781 68.769531 -72.328125 C 66.003906 -78.652344 63.433594 -83.988281 61.457031 -88.335938 C 60.667969 -89.914062 59.480469 -92.484375 58.097656 -96.042969 C 56.519531 -99.597656 55.332031 -102.5625 54.34375 -104.738281 C 51.578125 -110.269531 48.613281 -114.417969 45.453125 -117.382812 C 42.289062 -119.753906 37.746094 -120.941406 31.421875 -121.136719 L 26.085938 -121.136719 C 18.179688 -121.136719 12.84375 -118.371094 9.683594 -112.839844 C 8.894531 -111.457031 8.101562 -109.082031 7.507812 -105.921875 C 6.71875 -102.761719 6.519531 -100.191406 6.519531 -98.609375 C 6.519531 -96.632812 6.519531 -91.890625 6.71875 -84.382812 C 6.917969 -76.871094 6.917969 -72.128906 6.71875 -70.550781 C 6.324219 -66.992188 6.324219 -63.632812 6.324219 -60.46875 C 6.324219 -56.914062 6.324219 -53.554688 6.71875 -50.195312 C 6.917969 -48.613281 6.917969 -43.871094 6.71875 -36.359375 C 6.519531 -28.65625 6.519531 -23.910156 6.519531 -22.332031 C 6.519531 -20.355469 6.71875 -17.984375 7.507812 -14.820312 C 8.101562 -11.660156 8.894531 -9.289062 9.683594 -8.101562 C 12.84375 -2.570312 18.179688 0.199219 26.085938 0.199219 L 31.421875 0.199219 C 37.941406 0.199219 42.683594 -0.988281 45.648438 -3.753906 C 48.613281 -6.71875 50.195312 -10.277344 50.195312 -14.425781 L 49.996094 -47.429688 C 57.507812 -33.988281 62.445312 -25.292969 64.421875 -21.539062 C 65.214844 -19.5625 66.792969 -16.996094 68.96875 -13.636719 C 71.140625 -10.277344 72.722656 -7.90625 73.511719 -6.71875 C 73.910156 -5.929688 75.882812 -4.347656 79.441406 -1.976562 C 82.207031 -0.394531 85.964844 0.199219 91.101562 0.199219 C 98.808594 0.199219 104.339844 -2.570312 107.503906 -8.101562 C 108.292969 -9.484375 109.082031 -11.855469 110.070312 -15.019531 C 111.058594 -18.179688 111.652344 -20.75 111.652344 -22.332031 C 111.652344 -22.332031 111.457031 -27.074219 111.457031 -36.164062 C 111.457031 -45.253906 111.457031 -49.996094 111.652344 -50.195312 Z M 16.796875 -111.851562 L 17.390625 -113.429688 L 18.574219 -113.234375 C 18.179688 -112.839844 17.984375 -112.640625 17.785156 -112.246094 C 17.585938 -111.851562 17.390625 -111.652344 17.390625 -111.652344 L 16.996094 -111.851562 Z M 19.5625 -109.875 L 19.5625 -112.839844 C 20.75 -112.046875 21.34375 -111.457031 21.539062 -110.863281 L 23.121094 -109.675781 L 22.332031 -107.898438 L 23.714844 -106.515625 C 23.515625 -105.527344 22.921875 -104.933594 21.738281 -104.933594 C 21.539062 -106.121094 21.539062 -108.097656 21.539062 -110.863281 C 20.550781 -111.652344 19.960938 -111.457031 19.5625 -109.875 Z M 96.042969 -107.503906 L 96.042969 -111.851562 C 96.238281 -111.851562 96.632812 -111.652344 97.226562 -111.457031 C 97.621094 -111.257812 98.214844 -111.058594 98.609375 -111.058594 L 96.4375 -107.304688 C 96.238281 -107.304688 96.042969 -107.304688 96.042969 -107.503906 Z M 77.070312 -109.28125 L 76.675781 -111.457031 C 77.269531 -110.863281 77.664062 -110.46875 77.664062 -110.46875 C 77.664062 -110.269531 77.464844 -109.875 77.070312 -109.28125 Z M 86.949219 -111.457031 C 86.949219 -111.257812 87.148438 -111.058594 87.347656 -110.664062 C 87.542969 -110.269531 87.742188 -109.875 87.9375 -109.875 L 85.765625 -109.082031 Z M 30.828125 -111.058594 C 31.222656 -110.269531 31.617188 -109.675781 31.617188 -109.675781 C 31.222656 -109.28125 30.828125 -109.082031 30.628906 -109.082031 C 30.234375 -109.082031 30.039062 -109.28125 30.039062 -109.875 C 30.039062 -109.875 30.039062 -110.070312 30.433594 -110.46875 C 30.433594 -110.664062 30.628906 -110.863281 30.828125 -111.058594 Z M 42.882812 -106.121094 L 40.707031 -105.722656 L 40.707031 -110.070312 C 41.695312 -110.269531 42.488281 -110.46875 43.082031 -110.46875 C 43.082031 -110.269531 43.082031 -110.070312 43.476562 -109.875 C 43.082031 -109.875 42.488281 -109.675781 42.09375 -109.480469 C 42.289062 -108.492188 42.488281 -107.304688 42.882812 -106.121094 Z M 79.441406 -107.109375 L 77.464844 -106.121094 C 77.464844 -106.710938 77.464844 -107.109375 77.664062 -107.109375 C 77.664062 -107.109375 78.257812 -107.109375 79.441406 -107.109375 Z M 32.410156 -106.515625 L 32.410156 -106.121094 L 31.027344 -105.527344 C 31.027344 -105.921875 31.222656 -106.316406 31.222656 -106.710938 C 31.617188 -106.710938 32.015625 -106.515625 32.410156 -106.515625 Z M 91.695312 -99.597656 C 91.101562 -101.574219 91.695312 -103.75 93.667969 -106.121094 L 94.066406 -105.328125 C 94.066406 -104.738281 94.261719 -104.339844 94.261719 -104.144531 C 93.867188 -102.957031 93.867188 -101.773438 94.65625 -100.585938 C 94.855469 -99.796875 94.460938 -99.597656 93.667969 -99.597656 Z M 83.589844 -104.539062 C 83.589844 -104.339844 83.589844 -103.945312 83.789062 -103.351562 C 83.988281 -102.5625 84.183594 -102.167969 84.183594 -101.773438 C 84.183594 -101.574219 83.988281 -100.785156 83.789062 -99.203125 C 83.589844 -99.003906 83.195312 -98.808594 82.800781 -98.808594 C 82.40625 -98.808594 82.011719 -98.808594 81.8125 -98.808594 L 81.417969 -105.328125 C 81.617188 -105.132812 82.40625 -104.933594 83.589844 -104.539062 Z M 99.402344 -105.132812 L 99.796875 -105.328125 C 100.191406 -104.738281 100.585938 -104.339844 100.785156 -104.144531 C 100.785156 -103.945312 100.585938 -103.550781 100.390625 -102.957031 L 99.402344 -103.550781 Z M 47.230469 -99.992188 C 47.230469 -99.203125 47.230469 -98.808594 47.03125 -98.609375 C 46.835938 -98.214844 46.242188 -98.015625 45.253906 -97.820312 C 44.265625 -100.191406 44.265625 -102.363281 45.054688 -104.738281 L 47.824219 -103.15625 C 47.03125 -102.363281 46.835938 -101.179688 47.230469 -99.992188 Z M 34.976562 -103.945312 L 38.335938 -103.351562 L 36.359375 -101.773438 C 36.558594 -101.375 36.757812 -100.980469 37.152344 -100.585938 C 37.746094 -99.402344 37.546875 -98.609375 36.359375 -98.214844 C 35.964844 -98.214844 35.769531 -98.015625 35.375 -98.015625 C 35.375 -99.203125 35.175781 -101.179688 34.976562 -103.945312 Z M 26.480469 -103.550781 C 27.46875 -103.75 28.0625 -103.351562 28.257812 -102.5625 C 28.65625 -100.980469 28.0625 -99.597656 26.875 -98.214844 C 26.085938 -99.003906 25.886719 -100.785156 26.480469 -103.550781 Z M 99.796875 -97.820312 C 99.003906 -99.203125 99.003906 -100.390625 99.796875 -101.179688 C 99.992188 -101.574219 100.980469 -101.96875 102.957031 -101.96875 C 100.980469 -99.402344 99.992188 -98.015625 99.796875 -97.820312 Z M 16.402344 -98.015625 L 16.996094 -98.808594 L 17.390625 -98.609375 L 16.796875 -97.820312 Z M 95.644531 -98.414062 C 96.632812 -97.425781 97.226562 -96.4375 97.226562 -95.449219 C 97.03125 -94.855469 97.03125 -94.066406 97.425781 -93.078125 C 96.4375 -92.683594 95.84375 -92.878906 95.449219 -93.867188 C 94.855469 -95.84375 94.855469 -97.425781 95.644531 -98.414062 Z M 33 -97.03125 L 32.804688 -97.03125 L 32.804688 -98.214844 C 32.804688 -98.214844 33 -98.015625 33.199219 -98.015625 L 33.199219 -97.621094 C 33 -97.226562 33 -97.03125 33 -97.03125 Z M 103.550781 -94.65625 C 103.550781 -95.25 103.550781 -96.042969 103.945312 -97.226562 C 104.144531 -98.015625 104.539062 -98.214844 105.328125 -98.015625 C 106.121094 -97.621094 106.515625 -97.226562 106.515625 -96.4375 C 106.515625 -94.855469 106.316406 -93.667969 106.316406 -92.683594 C 105.132812 -91.496094 104.144531 -91.101562 103.351562 -91.496094 C 103.351562 -92.878906 103.351562 -93.867188 103.550781 -94.65625 Z M 21.933594 -94.066406 L 24.109375 -93.078125 L 22.726562 -91.101562 C 22.527344 -91.101562 22.332031 -91.101562 22.332031 -91.296875 L 22.132812 -91.296875 C 21.34375 -93.667969 21.144531 -95.644531 21.933594 -97.226562 L 23.320312 -95.84375 C 23.121094 -95.449219 22.921875 -95.25 22.527344 -94.855469 C 22.132812 -94.460938 21.933594 -94.066406 21.933594 -94.066406 Z M 79.046875 -96.832031 C 78.652344 -94.855469 78.652344 -93.667969 78.652344 -92.878906 C 78.453125 -91.890625 77.859375 -91.496094 76.675781 -91.496094 C 76.675781 -91.890625 76.476562 -92.285156 76.476562 -92.878906 C 76.476562 -93.472656 76.476562 -93.867188 76.476562 -94.261719 C 76.28125 -95.84375 77.070312 -96.832031 79.046875 -96.832031 Z M 86.160156 -96.832031 L 86.753906 -96.832031 L 87.742188 -94.855469 L 89.125 -94.65625 C 89.914062 -94.65625 90.308594 -94.261719 90.308594 -93.667969 C 90.308594 -92.878906 89.71875 -92.285156 88.925781 -91.890625 C 88.136719 -91.496094 87.542969 -91.695312 87.542969 -92.484375 C 87.148438 -93.078125 86.753906 -93.472656 86.359375 -93.472656 C 85.964844 -93.472656 85.765625 -93.867188 85.765625 -94.65625 C 85.765625 -95.054688 85.765625 -95.644531 86.160156 -96.832031 Z M 14.03125 -96.042969 C 14.03125 -94.65625 14.03125 -93.867188 14.425781 -93.472656 C 14.820312 -92.683594 14.625 -91.890625 13.636719 -90.902344 C 12.84375 -91.101562 12.449219 -91.695312 12.253906 -92.683594 C 11.855469 -93.472656 11.660156 -94.066406 11.460938 -94.460938 C 11.855469 -95.644531 12.054688 -96.238281 12.449219 -96.4375 C 12.648438 -96.4375 13.242188 -96.4375 14.03125 -96.042969 Z M 31.222656 -94.261719 L 33 -92.285156 L 30.433594 -91.101562 L 30.433594 -95.84375 L 32.605469 -96.238281 C 32.210938 -95.449219 31.617188 -94.65625 31.222656 -94.261719 Z M 39.917969 -96.042969 C 40.117188 -96.042969 40.511719 -96.042969 41.105469 -96.042969 C 41.695312 -96.042969 42.09375 -96.238281 42.488281 -96.238281 L 42.488281 -95.84375 L 40.117188 -95.449219 C 39.917969 -95.449219 39.917969 -95.644531 39.917969 -96.042969 Z M 40.707031 -94.066406 C 40.707031 -93.667969 40.707031 -92.878906 41.105469 -91.695312 L 40.3125 -91.890625 C 39.917969 -91.890625 39.722656 -91.890625 39.722656 -92.089844 C 39.324219 -92.484375 39.523438 -93.273438 40.707031 -94.066406 Z M 102.167969 -86.160156 C 101.773438 -85.765625 101.375 -85.566406 100.980469 -85.171875 C 100.390625 -84.777344 99.992188 -84.382812 99.796875 -84.183594 C 99.402344 -87.347656 99.203125 -89.71875 99.003906 -91.496094 C 100.390625 -90.707031 100.980469 -89.914062 100.785156 -88.925781 C 100.585938 -88.136719 100.980469 -87.148438 102.167969 -86.160156 Z M 35.175781 -83.988281 C 34.78125 -86.554688 34.78125 -88.730469 35.175781 -90.507812 C 35.964844 -89.914062 36.558594 -89.125 36.558594 -88.335938 C 36.558594 -86.359375 35.964844 -84.777344 35.175781 -83.988281 Z M 53.75 -90.308594 L 55.136719 -89.519531 L 54.738281 -86.554688 C 54.738281 -84.976562 54.34375 -83.988281 53.949219 -83.589844 C 53.554688 -87.542969 53.355469 -89.71875 53.75 -90.308594 Z M 81.617188 -90.308594 C 83.988281 -87.9375 83.789062 -86.160156 81.417969 -85.171875 C 81.21875 -85.964844 81.21875 -87.742188 81.617188 -90.308594 Z M 93.078125 -90.113281 C 91.890625 -88.925781 91.695312 -87.542969 92.089844 -86.160156 C 92.089844 -85.964844 92.089844 -85.765625 92.089844 -85.566406 C 91.890625 -85.171875 91.890625 -84.976562 91.890625 -84.976562 L 91.101562 -84.976562 C 90.707031 -86.949219 90.507812 -87.9375 90.507812 -88.335938 C 90.308594 -89.125 90.507812 -89.71875 90.902344 -90.113281 C 91.296875 -90.308594 91.890625 -90.308594 93.078125 -90.113281 Z M 16.402344 -87.347656 C 16.402344 -87.742188 16.601562 -88.53125 16.601562 -89.71875 L 19.367188 -89.71875 C 18.972656 -88.335938 18.972656 -87.148438 18.972656 -86.359375 C 18.773438 -84.976562 17.785156 -84.382812 16.203125 -84.578125 C 16.203125 -84.777344 16.203125 -85.171875 16.203125 -85.964844 C 16.203125 -86.554688 16.402344 -86.949219 16.402344 -87.347656 Z M 27.667969 -87.9375 C 27.269531 -86.554688 26.875 -85.765625 26.480469 -85.566406 C 25.886719 -86.753906 25.886719 -87.9375 26.480469 -89.519531 C 27.269531 -89.324219 27.667969 -89.125 27.863281 -89.125 C 27.863281 -88.925781 27.863281 -88.53125 27.667969 -87.9375 Z M 45.054688 -83.789062 C 44.660156 -86.160156 44.660156 -88.136719 45.453125 -89.324219 C 46.441406 -88.925781 46.835938 -88.53125 46.835938 -87.742188 C 46.835938 -87.347656 46.835938 -86.949219 47.03125 -86.753906 C 47.625 -84.976562 47.03125 -83.988281 45.054688 -83.789062 Z M 19.761719 -82.800781 C 19.367188 -83.195312 19.367188 -84.183594 19.761719 -85.371094 C 19.761719 -85.371094 19.960938 -85.171875 20.15625 -85.171875 C 20.15625 -84.777344 19.960938 -83.988281 19.761719 -82.800781 Z M 88.53125 -77.859375 L 86.359375 -77.859375 L 86.359375 -83 L 89.324219 -83.789062 L 88.730469 -81.8125 L 88.730469 -80.824219 C 88.730469 -80.429688 88.730469 -79.441406 88.53125 -77.859375 Z M 105.921875 -78.058594 C 105.722656 -77.859375 105.328125 -77.859375 104.933594 -77.859375 L 104.144531 -83.394531 C 105.328125 -83 105.921875 -82.207031 106.121094 -81.21875 C 106.121094 -80.824219 106.121094 -80.429688 106.515625 -80.035156 C 106.910156 -78.847656 106.710938 -78.257812 105.921875 -78.058594 Z M 33 -83.195312 L 33 -82.011719 C 32.210938 -81.617188 31.816406 -80.628906 31.816406 -79.046875 C 31.816406 -78.058594 31.222656 -77.664062 30.433594 -77.664062 L 29.839844 -82.601562 C 30.628906 -81.8125 31.816406 -82.011719 33 -83.195312 Z M 96.042969 -80.429688 L 95.644531 -80.230469 L 97.820312 -78.847656 C 97.03125 -78.058594 96.4375 -78.058594 96.042969 -78.847656 C 94.855469 -80.230469 94.65625 -81.617188 95.84375 -83.195312 C 96.632812 -83 96.832031 -82.601562 96.4375 -81.8125 C 96.042969 -81.023438 96.042969 -80.429688 96.042969 -80.429688 Z M 13.832031 -80.230469 L 13.242188 -77.269531 C 11.660156 -79.046875 12.054688 -81.023438 14.03125 -83 C 14.03125 -82.601562 14.03125 -81.8125 13.832031 -80.230469 Z M 76.28125 -81.8125 C 76.28125 -82.601562 76.675781 -83 77.464844 -82.800781 L 76.675781 -78.058594 L 76.28125 -78.058594 Z M 21.933594 -77.070312 C 21.539062 -79.835938 21.738281 -81.617188 22.132812 -82.800781 C 22.527344 -82.601562 23.121094 -82.207031 23.910156 -81.8125 C 23.121094 -81.417969 22.921875 -80.628906 22.921875 -79.441406 C 22.921875 -78.257812 22.527344 -77.464844 21.933594 -77.070312 Z M 60.667969 -82.800781 C 61.0625 -81.617188 61.457031 -80.824219 61.855469 -80.035156 C 60.667969 -80.230469 60.273438 -81.21875 60.667969 -82.800781 Z M 39.917969 -82.40625 C 40.3125 -82.800781 40.707031 -82.601562 41.300781 -82.207031 C 40.511719 -80.628906 40.707031 -79.441406 42.09375 -78.453125 C 42.488281 -78.058594 42.289062 -77.464844 41.894531 -76.871094 C 40.707031 -77.664062 40.117188 -78.257812 39.722656 -78.847656 C 38.535156 -80.035156 38.734375 -81.21875 39.917969 -82.40625 Z M 49.207031 -77.664062 L 49.601562 -82.40625 C 50.984375 -80.429688 50.984375 -78.652344 49.402344 -76.675781 C 49.402344 -76.675781 49.207031 -76.871094 49.207031 -77.070312 C 49.207031 -77.269531 49.207031 -77.464844 49.207031 -77.664062 Z M 93.472656 -75.882812 L 90.308594 -72.523438 C 89.914062 -73.316406 90.113281 -74.699219 90.707031 -76.675781 C 91.496094 -76.28125 92.285156 -76.082031 93.472656 -75.882812 Z M 102.5625 -72.722656 L 97.425781 -68.375 C 97.03125 -67.980469 96.832031 -67.1875 97.226562 -66.398438 C 97.226562 -65.214844 96.832031 -64.621094 95.644531 -64.621094 C 95.054688 -65.015625 94.855469 -65.804688 95.25 -66.792969 C 95.644531 -67.78125 95.644531 -68.574219 95.644531 -68.96875 C 97.425781 -69.757812 98.214844 -71.140625 98.015625 -73.117188 L 98.214844 -73.511719 C 98.414062 -73.710938 98.609375 -73.910156 98.609375 -74.105469 C 98.609375 -74.105469 98.808594 -74.5 99.203125 -74.894531 L 99.597656 -76.675781 C 100.785156 -76.28125 101.574219 -75.6875 101.773438 -74.699219 C 101.773438 -74.304688 101.96875 -73.910156 102.167969 -73.511719 C 102.363281 -73.117188 102.5625 -72.722656 102.5625 -72.722656 Z M 26.679688 -74.699219 L 27.863281 -76.28125 C 27.863281 -75.292969 27.46875 -74.699219 26.679688 -74.699219 Z M 35.375 -76.28125 L 36.359375 -75.09375 L 34.976562 -73.511719 L 34.976562 -76.082031 C 34.976562 -76.082031 35.175781 -76.082031 35.175781 -76.082031 C 35.175781 -76.082031 35.175781 -76.28125 35.375 -76.28125 Z M 53.949219 -76.28125 L 55.53125 -75.09375 C 55.332031 -74.699219 55.136719 -74.5 54.9375 -74.105469 C 54.542969 -73.710938 54.34375 -73.316406 54.34375 -73.117188 C 54.34375 -72.722656 54.34375 -72.328125 54.542969 -71.933594 C 54.738281 -71.535156 54.9375 -71.140625 54.9375 -71.140625 L 53.949219 -69.757812 C 53.160156 -70.945312 53.160156 -73.117188 53.949219 -76.28125 Z M 16.203125 -75.488281 C 16.996094 -75.09375 17.390625 -74.699219 17.390625 -74.5 C 17.390625 -74.304688 17.191406 -73.710938 16.796875 -72.921875 C 16.007812 -73.316406 15.808594 -74.304688 16.203125 -75.488281 Z M 45.054688 -69.957031 L 44.464844 -74.5 C 44.464844 -74.699219 44.660156 -75.09375 45.054688 -75.488281 L 45.847656 -75.292969 C 45.847656 -74.894531 45.847656 -74.5 46.042969 -73.710938 C 46.242188 -72.921875 46.441406 -72.523438 46.441406 -72.128906 C 46.042969 -70.945312 45.648438 -70.152344 45.054688 -69.957031 Z M 80.824219 -71.140625 L 81.617188 -75.292969 L 83.789062 -73.117188 C 83.789062 -72.921875 83.988281 -72.722656 83.988281 -72.523438 C 83.988281 -72.128906 83.789062 -71.933594 83.789062 -71.933594 C 83.195312 -70.945312 82.207031 -70.746094 80.824219 -71.140625 Z M 93.273438 -71.535156 L 91.101562 -72.128906 C 91.496094 -72.523438 91.695312 -72.921875 91.890625 -72.921875 C 92.089844 -72.921875 92.285156 -72.921875 92.484375 -72.722656 C 92.683594 -72.523438 92.878906 -72.128906 93.273438 -71.535156 Z M 9.289062 -70.746094 C 8.695312 -70.746094 8.496094 -70.945312 8.496094 -71.734375 C 8.695312 -72.523438 9.089844 -72.921875 9.878906 -72.921875 L 10.472656 -71.734375 C 10.472656 -70.746094 10.078125 -70.351562 9.289062 -70.746094 Z M 35.175781 -72.523438 L 35.769531 -72.921875 L 36.953125 -70.945312 L 34.976562 -69.5625 C 34.976562 -70.351562 35.175781 -71.339844 35.175781 -72.523438 Z M 26.480469 -72.722656 C 27.667969 -72.722656 28.0625 -72.128906 27.863281 -71.339844 C 27.863281 -70.550781 27.269531 -70.152344 26.480469 -70.152344 C 25.886719 -70.945312 25.886719 -71.734375 26.480469 -72.722656 Z M 85.765625 -70.152344 C 86.753906 -69.363281 87.148438 -68.574219 86.949219 -67.980469 C 86.949219 -67.386719 86.949219 -66.792969 87.347656 -66.398438 C 87.742188 -65.609375 87.542969 -64.816406 86.359375 -64.421875 C 86.359375 -64.621094 86.160156 -65.015625 86.160156 -65.410156 C 86.160156 -65.804688 85.964844 -66.003906 85.964844 -66.398438 C 85.964844 -66.792969 85.765625 -66.992188 85.765625 -67.386719 C 85.171875 -68.175781 85.171875 -69.164062 85.765625 -70.152344 Z M 76.28125 -69.5625 C 76.28125 -69.5625 76.476562 -69.757812 76.675781 -69.757812 L 78.058594 -68.175781 L 78.453125 -66.992188 C 78.652344 -65.804688 78.652344 -65.214844 78.453125 -65.015625 C 78.257812 -64.621094 77.664062 -64.421875 76.675781 -64.226562 C 76.871094 -65.410156 76.675781 -66.597656 76.082031 -67.78125 C 75.882812 -67.78125 75.882812 -68.175781 76.082031 -68.574219 C 76.082031 -68.96875 76.28125 -69.363281 76.28125 -69.5625 Z M 32.210938 -67.1875 L 30.828125 -65.804688 C 30.433594 -66.003906 30.433594 -66.792969 30.433594 -68.175781 L 33.398438 -69.5625 L 33.988281 -67.1875 Z M 22.132812 -66.203125 L 23.910156 -64.621094 L 21.738281 -62.84375 C 21.738281 -63.039062 21.539062 -63.632812 21.144531 -64.816406 C 20.75 -66.003906 20.75 -66.597656 20.75 -66.992188 C 20.75 -67.1875 20.949219 -67.980469 21.34375 -69.164062 L 23.320312 -67.585938 C 22.726562 -66.792969 22.332031 -66.398438 22.132812 -66.203125 Z M 50.390625 -67.980469 L 51.183594 -64.816406 L 49.601562 -63.828125 L 48.8125 -69.164062 C 49.601562 -69.164062 49.996094 -68.769531 50.390625 -67.980469 Z M 11.660156 -68.375 L 13.636719 -68.375 C 13.242188 -65.804688 13.042969 -64.421875 13.042969 -64.421875 C 13.042969 -64.027344 12.648438 -63.632812 12.253906 -63.238281 C 11.265625 -64.816406 11.066406 -66.597656 11.660156 -68.375 Z M 40.3125 -67.585938 L 42.882812 -64.816406 L 41.695312 -63.433594 C 39.917969 -63.828125 39.523438 -65.214844 40.3125 -67.585938 Z M 59.878906 -65.214844 L 58.496094 -64.226562 C 58.496094 -64.816406 58.691406 -65.214844 58.691406 -65.410156 C 58.691406 -65.410156 59.085938 -65.410156 59.878906 -65.214844 Z M 101.574219 -57.308594 C 101.179688 -57.109375 100.390625 -56.714844 99.003906 -56.320312 C 99.003906 -56.714844 99.003906 -57.902344 98.808594 -59.878906 C 98.414062 -61.65625 98.609375 -62.84375 99.402344 -63.433594 C 100.191406 -63.238281 100.585938 -62.84375 100.785156 -62.050781 C 100.785156 -60.667969 101.179688 -59.480469 102.167969 -58.691406 C 102.761719 -57.902344 102.5625 -57.507812 101.574219 -57.308594 Z M 62.25 -62.84375 C 63.433594 -62.050781 64.226562 -60.867188 64.816406 -59.285156 C 65.015625 -58.890625 64.816406 -58.296875 64.421875 -57.902344 C 64.226562 -57.507812 63.828125 -57.308594 63.433594 -57.109375 C 62.84375 -56.714844 62.445312 -56.519531 62.445312 -56.519531 C 62.050781 -59.679688 62.050781 -61.855469 62.25 -62.84375 Z M 69.363281 -49.996094 L 67.980469 -50.390625 C 67.78125 -50.789062 67.78125 -51.183594 67.78125 -51.773438 L 67.78125 -53.949219 L 70.746094 -55.925781 C 71.140625 -56.519531 71.339844 -57.703125 71.734375 -59.679688 L 71.734375 -62.84375 C 71.933594 -62.644531 72.328125 -62.445312 72.722656 -62.25 C 73.117188 -62.050781 73.511719 -61.855469 73.910156 -61.855469 C 72.921875 -60.867188 72.722656 -59.878906 73.117188 -59.085938 C 73.511719 -58.296875 73.316406 -57.507812 72.722656 -56.714844 L 70.152344 -53.160156 L 70.351562 -52.171875 L 73.316406 -45.648438 C 73.710938 -44.265625 73.316406 -43.082031 71.933594 -42.289062 L 71.339844 -44.066406 C 70.945312 -46.042969 70.746094 -47.625 70.550781 -48.8125 C 70.351562 -49.007812 70.152344 -49.207031 69.757812 -49.601562 Z M 82.800781 -61.65625 C 82.40625 -61.65625 82.40625 -61.855469 82.40625 -62.25 C 82.40625 -62.25 82.601562 -62.445312 82.800781 -62.445312 C 83.195312 -62.445312 83.394531 -62.25 83.589844 -61.855469 C 83.195312 -61.457031 82.800781 -61.457031 82.800781 -61.65625 Z M 54.34375 -56.121094 C 53.949219 -56.714844 53.554688 -57.507812 53.554688 -58.296875 C 53.554688 -59.085938 53.554688 -59.679688 53.554688 -60.273438 C 53.554688 -60.867188 53.554688 -61.65625 53.554688 -62.445312 C 54.148438 -62.25 54.9375 -62.25 55.726562 -62.25 C 55.726562 -59.679688 55.136719 -57.703125 54.34375 -56.121094 Z M 92.683594 -57.507812 C 91.890625 -57.109375 91.296875 -56.714844 90.902344 -56.320312 L 90.113281 -60.46875 C 89.914062 -60.867188 89.914062 -61.457031 90.308594 -62.25 L 92.285156 -62.25 L 91.695312 -59.679688 C 91.296875 -59.085938 91.695312 -58.296875 92.683594 -57.507812 Z M 37.152344 -62.050781 L 38.335938 -59.085938 L 35.964844 -58.097656 L 35.964844 -56.121094 C 35.769531 -56.121094 35.570312 -56.320312 35.375 -56.519531 C 35.175781 -56.519531 35.175781 -56.519531 35.175781 -56.714844 L 35.175781 -60.667969 C 35.175781 -60.867188 35.769531 -61.261719 37.152344 -62.050781 Z M 16.601562 -61.855469 C 17.785156 -61.855469 17.984375 -61.457031 17.585938 -60.667969 C 17.191406 -59.480469 17.585938 -58.296875 18.773438 -57.507812 L 19.960938 -55.925781 C 19.367188 -55.925781 18.773438 -55.925781 17.984375 -55.925781 C 17.191406 -55.925781 16.796875 -56.121094 16.601562 -56.121094 C 15.613281 -58.296875 15.613281 -60.273438 16.601562 -61.855469 Z M 44.859375 -58.890625 L 46.441406 -57.308594 L 45.054688 -56.121094 C 44.660156 -56.914062 44.464844 -57.902344 44.859375 -58.890625 Z M 83.195312 -57.507812 L 81.617188 -58.496094 C 82.40625 -58.496094 83 -58.296875 83.195312 -57.507812 Z M 26.28125 -58.296875 L 28.65625 -56.121094 C 28.457031 -56.121094 28.257812 -55.925781 28.0625 -55.726562 C 27.863281 -55.332031 27.667969 -55.332031 27.667969 -55.332031 C 27.269531 -55.332031 26.875 -55.53125 26.679688 -56.121094 C 26.480469 -56.320312 26.28125 -56.714844 26.28125 -57.308594 C 26.28125 -57.703125 26.28125 -58.097656 26.28125 -58.296875 Z M 105.722656 -50.789062 C 104.144531 -49.800781 103.550781 -50.195312 103.550781 -51.773438 L 103.550781 -56.121094 L 106.316406 -54.9375 C 105.722656 -54.148438 105.328125 -53.75 105.132812 -53.554688 C 104.339844 -52.960938 104.339844 -52.171875 105.132812 -51.378906 L 106.515625 -52.367188 C 106.515625 -52.367188 106.710938 -52.171875 106.710938 -52.171875 C 106.710938 -52.171875 106.710938 -52.171875 106.910156 -52.171875 C 106.316406 -51.378906 105.921875 -50.789062 105.722656 -50.789062 Z M 87.742188 -51.972656 L 85.765625 -50.195312 C 84.976562 -52.171875 84.976562 -53.75 85.765625 -55.332031 C 85.964844 -55.332031 86.554688 -54.9375 87.542969 -54.542969 C 87.542969 -54.148438 87.542969 -53.75 87.542969 -53.355469 C 87.542969 -52.761719 87.742188 -52.367188 87.742188 -51.972656 Z M 78.847656 -54.542969 L 76.476562 -53.160156 C 76.28125 -53.75 76.28125 -54.148438 76.476562 -54.542969 C 76.476562 -54.738281 76.675781 -54.9375 77.070312 -54.9375 C 77.464844 -54.9375 78.058594 -54.738281 78.847656 -54.542969 Z M 12.253906 -54.738281 L 14.820312 -53.75 L 13.4375 -50.984375 C 13.4375 -50.789062 13.636719 -50.589844 14.03125 -50.195312 C 14.226562 -49.800781 14.425781 -49.601562 14.425781 -49.601562 L 14.425781 -48.613281 C 14.03125 -48.019531 13.4375 -47.824219 12.449219 -47.824219 C 11.660156 -49.402344 11.660156 -51.578125 12.253906 -54.738281 Z M 30.234375 -52.566406 C 29.839844 -53.554688 29.839844 -54.34375 30.628906 -54.738281 C 30.628906 -54.34375 30.828125 -54.148438 31.222656 -53.75 L 31.421875 -53.355469 C 31.027344 -52.960938 30.628906 -52.761719 30.234375 -52.566406 Z M 59.679688 -48.613281 C 57.703125 -50.390625 57.308594 -52.367188 58.296875 -54.738281 C 58.890625 -54.738281 59.480469 -54.542969 60.074219 -54.542969 C 59.679688 -53.75 59.679688 -53.160156 59.679688 -52.761719 C 59.285156 -51.578125 59.480469 -50.984375 59.878906 -50.589844 C 60.273438 -50.195312 60.074219 -49.601562 59.679688 -48.613281 Z M 23.515625 -51.183594 L 21.933594 -48.019531 C 20.75 -50.390625 20.75 -52.566406 21.933594 -54.542969 C 22.332031 -54.148438 22.726562 -53.554688 22.726562 -52.761719 C 22.726562 -51.773438 22.921875 -51.183594 23.515625 -51.183594 Z M 41.300781 -49.207031 L 39.128906 -48.613281 C 39.128906 -51.773438 39.128906 -53.554688 39.523438 -54.34375 C 39.722656 -54.34375 40.117188 -54.148438 40.511719 -54.148438 C 40.90625 -54.148438 41.300781 -54.148438 41.5 -54.148438 C 41.300781 -53.75 41.300781 -53.160156 41.300781 -52.761719 C 40.90625 -51.972656 40.90625 -51.378906 41.695312 -50.789062 C 42.289062 -49.996094 42.09375 -49.601562 41.300781 -49.207031 Z M 95.644531 -53.949219 L 96.832031 -51.183594 L 95.449219 -50.589844 L 95.449219 -53.949219 Z M 79.242188 -51.183594 C 78.847656 -50.195312 78.058594 -49.800781 76.871094 -49.800781 C 77.070312 -50.984375 77.269531 -51.578125 77.464844 -51.972656 C 77.859375 -52.367188 78.257812 -52.566406 78.652344 -52.566406 C 79.242188 -52.171875 79.441406 -51.773438 79.242188 -51.183594 Z M 31.027344 -48.613281 C 30.039062 -49.207031 29.839844 -49.800781 30.433594 -50.390625 C 30.828125 -50.789062 31.617188 -50.789062 33 -50.589844 C 32.804688 -49.800781 32.210938 -49.207031 31.027344 -48.613281 Z M 99.597656 -42.289062 C 99.003906 -43.871094 98.609375 -45.453125 98.609375 -46.636719 C 98.609375 -46.835938 98.609375 -47.03125 98.609375 -47.429688 C 98.609375 -47.625 98.808594 -48.019531 99.003906 -48.414062 C 99.003906 -48.8125 99.203125 -49.207031 99.203125 -49.601562 L 101.574219 -47.824219 L 101.179688 -46.441406 C 101.96875 -45.054688 102.363281 -44.066406 102.167969 -43.476562 C 101.96875 -42.882812 101.179688 -42.488281 99.597656 -42.289062 Z M 90.308594 -43.082031 C 89.914062 -45.453125 89.71875 -46.636719 89.71875 -47.03125 C 89.71875 -48.613281 90.707031 -49.007812 92.285156 -48.21875 C 92.285156 -48.21875 92.484375 -48.019531 92.878906 -47.824219 C 91.101562 -46.636719 91.101562 -45.253906 92.683594 -44.066406 L 93.273438 -42.882812 C 92.484375 -42.882812 91.496094 -43.082031 90.308594 -43.082031 Z M 81.023438 -48.8125 C 81.617188 -48.21875 82.011719 -47.230469 82.207031 -46.042969 C 82.40625 -44.660156 82.601562 -43.871094 82.800781 -43.671875 C 82.601562 -43.277344 82.40625 -43.082031 82.207031 -42.882812 C 81.8125 -42.683594 81.617188 -42.488281 81.21875 -42.09375 L 80.429688 -41.300781 L 80.429688 -42.683594 C 80.429688 -43.871094 80.230469 -44.660156 80.230469 -45.453125 C 79.835938 -46.835938 80.230469 -48.019531 81.023438 -48.8125 Z M 18.972656 -46.441406 L 19.5625 -48.019531 L 19.960938 -47.625 C 20.15625 -46.835938 19.761719 -46.441406 18.972656 -46.441406 Z M 36.953125 -42.882812 L 35.175781 -41.695312 C 34.1875 -43.277344 34.1875 -45.253906 35.175781 -47.429688 C 35.570312 -47.03125 35.964844 -46.242188 35.964844 -45.054688 C 35.964844 -43.871094 36.359375 -43.277344 36.953125 -42.882812 Z M 29.050781 -43.476562 L 26.480469 -41.105469 C 25.691406 -42.882812 25.691406 -44.859375 26.480469 -46.835938 C 26.875 -46.441406 27.46875 -45.847656 28.0625 -45.054688 Z M 44.859375 -45.648438 C 45.253906 -43.671875 45.054688 -42.09375 44.265625 -41.300781 C 43.476562 -43.082031 43.671875 -44.464844 44.859375 -45.648438 Z M 16.796875 -43.871094 L 16.007812 -45.453125 C 16.601562 -45.453125 16.996094 -45.253906 16.996094 -45.253906 C 16.996094 -45.054688 16.796875 -44.660156 16.796875 -43.871094 Z M 65.214844 -42.683594 C 64.816406 -41.894531 64.027344 -41.5 62.84375 -41.894531 C 62.84375 -43.671875 63.238281 -44.859375 64.421875 -45.453125 C 65.410156 -44.265625 65.609375 -43.476562 65.214844 -42.683594 Z M 84.976562 -39.523438 L 84.976562 -41.300781 C 85.371094 -40.511719 85.371094 -39.917969 84.976562 -39.523438 Z M 101.179688 -31.617188 L 101.179688 -31.027344 C 101.96875 -29.839844 102.167969 -28.851562 101.773438 -28.457031 C 100.585938 -27.269531 99.203125 -27.074219 97.820312 -28.257812 C 98.609375 -29.246094 99.003906 -30.828125 98.808594 -32.804688 C 98.414062 -33.988281 98.214844 -34.582031 97.820312 -34.976562 C 97.425781 -35.175781 96.832031 -35.375 95.84375 -35.375 L 94.855469 -41.105469 C 95.449219 -41.105469 95.84375 -40.707031 96.238281 -39.917969 C 96.238281 -38.929688 96.832031 -38.535156 97.820312 -38.535156 C 98.214844 -38.535156 98.414062 -38.140625 98.808594 -37.546875 L 99.203125 -35.964844 C 99.203125 -34.386719 99.796875 -33.59375 101.179688 -33.59375 C 101.179688 -33.59375 101.574219 -33.398438 102.363281 -33 C 101.773438 -32.605469 101.375 -32.015625 101.179688 -31.617188 Z M 76.871094 -40.90625 L 78.058594 -35.769531 C 77.664062 -35.769531 76.871094 -35.570312 76.082031 -35.175781 C 76.082031 -35.964844 76.28125 -36.953125 76.28125 -38.140625 C 76.28125 -39.324219 76.476562 -40.117188 76.871094 -40.90625 Z M 104.738281 -39.128906 L 106.515625 -36.558594 L 104.144531 -35.964844 L 103.75 -40.90625 L 106.121094 -40.511719 Z M 67.386719 -40.707031 C 67.980469 -40.117188 68.175781 -39.722656 68.175781 -39.722656 C 68.175781 -39.523438 67.78125 -39.128906 67.1875 -38.734375 C 66.792969 -39.324219 66.992188 -39.917969 67.386719 -40.707031 Z M 30.628906 -40.3125 C 30.628906 -39.917969 30.828125 -39.722656 30.828125 -39.722656 C 30.828125 -39.523438 31.027344 -39.324219 31.027344 -39.324219 C 30.628906 -38.535156 30.628906 -37.347656 31.222656 -35.964844 C 31.421875 -35.175781 31.027344 -34.78125 30.039062 -34.386719 C 29.445312 -36.953125 29.640625 -38.929688 30.628906 -40.3125 Z M 11.855469 -36.164062 L 11.855469 -39.722656 L 14.226562 -38.734375 C 14.03125 -38.535156 13.832031 -38.140625 13.636719 -37.746094 C 13.4375 -37.347656 13.242188 -36.953125 13.042969 -36.558594 C 12.648438 -36.164062 12.253906 -36.164062 11.855469 -36.164062 Z M 21.933594 -34.976562 L 21.738281 -34.582031 C 21.34375 -34.1875 21.34375 -33.988281 21.34375 -33.988281 C 20.550781 -36.359375 20.75 -38.335938 21.738281 -39.722656 C 22.921875 -39.722656 23.121094 -39.324219 22.527344 -38.734375 C 21.539062 -37.546875 21.34375 -36.164062 21.933594 -34.976562 Z M 39.324219 -33.792969 L 39.324219 -39.523438 C 39.523438 -39.324219 39.917969 -38.734375 40.3125 -37.746094 C 40.3125 -37.347656 40.707031 -36.757812 41.300781 -35.964844 C 40.90625 -34.78125 40.3125 -34.1875 39.324219 -33.792969 Z M 69.164062 -35.570312 C 68.96875 -35.175781 68.574219 -35.175781 67.78125 -35.175781 C 67.386719 -35.175781 67.386719 -35.570312 67.386719 -36.359375 C 67.386719 -37.152344 67.980469 -37.941406 69.164062 -38.335938 C 69.957031 -37.152344 69.957031 -36.359375 69.164062 -35.570312 Z M 87.742188 -37.152344 L 87.347656 -36.558594 C 86.949219 -36.558594 86.753906 -36.359375 86.753906 -36.359375 C 86.359375 -36.359375 86.160156 -36.558594 86.160156 -36.953125 C 85.964844 -36.953125 85.964844 -37.152344 86.160156 -37.347656 C 86.359375 -37.347656 86.554688 -37.546875 86.753906 -37.546875 C 86.753906 -37.546875 87.148438 -37.347656 87.742188 -37.152344 Z M 72.722656 -32.605469 L 74.105469 -29.839844 L 72.128906 -27.667969 C 71.933594 -27.667969 71.734375 -27.667969 71.734375 -27.863281 C 71.339844 -29.246094 71.140625 -31.421875 70.945312 -34.386719 C 71.734375 -34.386719 72.328125 -33.792969 72.722656 -32.605469 Z M 17.390625 -30.234375 L 19.761719 -29.050781 L 19.761719 -28.65625 C 18.179688 -28.257812 16.996094 -28.257812 16.601562 -28.257812 L 16.601562 -32.605469 C 16.601562 -32.605469 16.996094 -32.410156 17.585938 -32.410156 C 17.984375 -32.410156 18.378906 -32.410156 18.773438 -32.605469 C 18.972656 -32.804688 18.972656 -33.398438 18.972656 -34.1875 C 19.367188 -33.199219 18.773438 -31.816406 17.390625 -30.234375 Z M 89.71875 -33.398438 C 89.914062 -33.792969 90.308594 -33.988281 91.101562 -33.792969 C 91.695312 -33.59375 92.089844 -33.59375 92.484375 -33.792969 C 91.695312 -33 90.707031 -32.804688 89.71875 -33.398438 Z M 81.023438 -33.988281 C 81.417969 -32.410156 81.617188 -31.421875 81.8125 -31.421875 C 81.8125 -31.222656 82.40625 -30.433594 83.589844 -29.050781 C 83.195312 -28.851562 82.601562 -28.65625 82.011719 -28.457031 C 81.21875 -28.257812 80.824219 -28.257812 80.628906 -28.257812 C 80.035156 -31.027344 80.230469 -32.804688 81.023438 -33.988281 Z M 27.863281 -31.816406 C 27.074219 -31.421875 26.480469 -31.222656 26.480469 -31.027344 C 26.480469 -30.828125 26.679688 -30.433594 27.269531 -29.839844 C 27.667969 -29.445312 27.667969 -28.851562 27.46875 -28.457031 C 27.074219 -28.0625 26.875 -28.0625 26.480469 -28.0625 C 26.085938 -28.0625 26.085938 -28.257812 26.085938 -28.851562 C 25.691406 -29.640625 25.691406 -30.234375 25.691406 -30.828125 C 25.691406 -31.027344 25.691406 -31.421875 26.085938 -32.015625 C 26.28125 -32.210938 26.679688 -32.410156 27.269531 -32.804688 C 27.667969 -33.199219 28.0625 -33.398438 28.257812 -33.59375 C 28.851562 -32.804688 28.65625 -32.210938 27.863281 -31.816406 Z M 35.570312 -30.039062 C 35.570312 -29.839844 35.375 -29.640625 35.375 -29.445312 C 35.375 -29.246094 35.375 -29.050781 35.375 -29.050781 C 34.1875 -30.628906 33.988281 -32.015625 34.78125 -33.59375 C 35.570312 -32.804688 35.769531 -32.015625 35.570312 -31.421875 Z M 44.265625 -31.222656 L 44.660156 -31.421875 C 44.859375 -31.421875 45.054688 -31.617188 45.253906 -31.617188 C 45.054688 -31.617188 44.660156 -32.410156 43.871094 -33.59375 C 44.660156 -33 45.253906 -32.410156 45.253906 -31.617188 C 45.253906 -31.421875 45.253906 -31.222656 45.453125 -31.222656 C 45.453125 -31.027344 45.648438 -30.828125 45.847656 -30.628906 C 45.847656 -30.433594 46.042969 -30.234375 46.042969 -30.234375 L 43.871094 -27.667969 C 43.671875 -28.851562 43.871094 -30.039062 44.265625 -31.222656 Z M 92.285156 -28.65625 C 91.496094 -28.65625 90.902344 -28.851562 90.902344 -29.246094 C 90.707031 -29.445312 90.507812 -30.039062 90.507812 -31.027344 C 91.695312 -30.234375 92.285156 -29.445312 92.285156 -28.65625 Z M 32.410156 -27.269531 L 32.410156 -29.246094 C 32.804688 -28.65625 32.804688 -28.0625 32.410156 -27.269531 Z M 30.433594 -23.910156 C 29.640625 -24.503906 29.640625 -25.492188 30.039062 -26.875 C 30.039062 -26.679688 30.234375 -26.480469 30.628906 -26.28125 C 30.828125 -26.085938 31.027344 -25.886719 31.222656 -25.886719 C 31.222656 -25.691406 31.421875 -25.492188 31.421875 -25.492188 C 31.816406 -24.898438 31.421875 -24.308594 30.433594 -23.910156 Z M 76.28125 -20.949219 C 76.28125 -21.34375 76.082031 -22.132812 75.6875 -23.714844 C 75.292969 -25.292969 75.488281 -26.28125 75.882812 -26.679688 C 76.871094 -26.28125 77.664062 -26.28125 78.058594 -26.28125 C 78.257812 -25.492188 78.453125 -24.308594 78.847656 -23.121094 C 77.859375 -22.132812 77.070312 -21.34375 76.28125 -20.949219 Z M 20.550781 -26.085938 C 21.144531 -26.28125 21.933594 -26.085938 23.121094 -25.292969 C 21.933594 -24.703125 21.144531 -24.308594 20.75 -23.910156 C 20.550781 -24.308594 20.550781 -25.097656 20.550781 -26.085938 Z M 86.160156 -21.144531 L 84.382812 -26.085938 C 85.371094 -26.480469 86.160156 -26.085938 86.554688 -25.097656 C 86.554688 -24.503906 86.949219 -23.714844 87.542969 -22.726562 L 86.753906 -21.933594 C 86.359375 -21.539062 86.160156 -21.34375 86.160156 -21.144531 Z M 94.855469 -26.28125 C 95.25 -26.28125 95.644531 -26.085938 96.238281 -26.085938 C 96.632812 -26.085938 97.03125 -26.085938 97.425781 -26.085938 L 95.644531 -21.539062 C 94.855469 -22.527344 94.460938 -24.109375 94.855469 -26.28125 Z M 104.539062 -23.714844 L 106.121094 -21.933594 L 103.75 -20.75 C 103.15625 -22.527344 103.351562 -24.308594 104.144531 -26.085938 L 104.539062 -26.085938 L 105.527344 -25.292969 C 104.738281 -24.308594 104.539062 -23.714844 104.539062 -23.714844 Z M 40.117188 -20.949219 C 40.117188 -21.34375 40.117188 -22.132812 39.722656 -23.320312 C 39.324219 -24.503906 39.324219 -25.292969 40.117188 -25.886719 C 40.707031 -24.308594 41.105469 -23.515625 41.105469 -23.515625 C 41.5 -22.726562 41.5 -22.332031 41.5 -22.132812 C 41.5 -21.738281 40.90625 -21.34375 40.117188 -20.949219 Z M 76.871094 -24.703125 C 76.28125 -23.910156 76.476562 -23.121094 77.464844 -22.726562 C 77.664062 -23.515625 77.464844 -24.308594 76.871094 -24.703125 Z M 14.425781 -20.550781 C 14.226562 -20.355469 13.832031 -20.355469 13.4375 -20.355469 C 13.042969 -20.355469 12.648438 -20.550781 12.648438 -20.75 C 12.054688 -21.144531 11.855469 -22.132812 12.253906 -23.910156 C 12.648438 -23.121094 13.636719 -22.527344 15.019531 -22.527344 C 15.214844 -21.539062 15.019531 -20.949219 14.425781 -20.550781 Z M 23.714844 -23.714844 L 24.503906 -22.726562 L 21.738281 -20.75 L 21.144531 -21.933594 Z M 32.804688 -19.167969 C 32.410156 -19.5625 32.410156 -20.355469 32.804688 -21.34375 L 33.199219 -20.15625 C 33.199219 -19.960938 33 -19.5625 32.804688 -19.167969 Z M 101.773438 -18.378906 C 100.980469 -17.585938 100.785156 -16.796875 101.375 -16.007812 C 101.375 -15.808594 101.574219 -15.613281 101.574219 -15.214844 C 101.574219 -14.820312 101.773438 -14.425781 101.773438 -14.425781 L 99.003906 -13.832031 L 99.003906 -17.585938 C 99.402344 -18.378906 99.597656 -18.773438 99.796875 -18.972656 C 99.992188 -18.972656 100.390625 -19.167969 100.785156 -19.367188 C 101.179688 -19.5625 101.574219 -19.761719 101.96875 -19.960938 C 102.363281 -19.367188 102.167969 -18.773438 101.773438 -18.378906 Z M 25.691406 -19.761719 C 26.679688 -19.367188 26.875 -18.179688 26.085938 -16.601562 C 25.492188 -17.390625 25.292969 -18.378906 25.691406 -19.761719 Z M 35.375 -13.242188 C 35.175781 -13.242188 34.976562 -13.242188 34.976562 -13.4375 L 34.78125 -13.4375 C 33.988281 -15.414062 34.1875 -17.585938 35.175781 -19.761719 L 36.757812 -18.972656 C 36.359375 -17.984375 35.964844 -16.007812 35.375 -13.242188 Z M 45.847656 -16.402344 C 45.648438 -16.402344 45.453125 -16.601562 45.054688 -16.796875 C 44.660156 -16.996094 44.464844 -17.191406 44.265625 -17.390625 C 43.871094 -17.585938 43.671875 -17.785156 43.671875 -17.984375 C 43.671875 -16.402344 44.265625 -15.414062 45.453125 -15.214844 C 45.253906 -14.820312 44.859375 -14.226562 44.464844 -13.4375 C 43.277344 -14.625 42.882812 -16.007812 43.671875 -17.984375 C 43.671875 -17.984375 43.671875 -18.574219 44.066406 -19.761719 L 46.242188 -19.167969 C 45.253906 -17.984375 45.054688 -17.191406 45.847656 -16.402344 Z M 82.601562 -19.367188 L 83.394531 -18.179688 C 82.207031 -17.585938 81.417969 -17.191406 81.21875 -17.191406 C 80.824219 -17.984375 80.628906 -18.378906 80.824219 -18.574219 C 80.824219 -18.773438 81.417969 -18.972656 82.601562 -19.367188 Z M 89.125 -15.414062 L 89.125 -18.179688 C 89.125 -18.972656 89.519531 -19.167969 90.308594 -19.167969 C 90.902344 -18.773438 91.296875 -18.574219 91.496094 -18.179688 C 91.890625 -16.996094 91.695312 -16.203125 91.296875 -15.808594 C 90.902344 -15.414062 90.113281 -15.214844 89.125 -15.414062 Z M 15.613281 -12.648438 L 15.414062 -13.042969 L 15.414062 -13.242188 C 15.808594 -13.636719 15.808594 -14.625 15.613281 -16.203125 C 15.414062 -17.785156 15.414062 -18.773438 15.414062 -19.167969 L 15.808594 -19.167969 C 16.601562 -17.585938 16.996094 -16.402344 17.390625 -15.613281 C 17.785156 -14.425781 17.191406 -13.4375 15.613281 -12.648438 Z M 83.589844 -17.191406 L 84.578125 -15.019531 L 80.628906 -13.832031 C 80.628906 -14.425781 81.21875 -15.019531 82.011719 -15.613281 C 82.800781 -16.203125 83.195312 -16.796875 83.589844 -17.191406 Z M 26.480469 -13.4375 C 26.480469 -14.226562 26.875 -15.019531 28.0625 -15.414062 C 28.257812 -14.625 28.457031 -14.226562 28.457031 -14.03125 C 28.457031 -13.636719 28.257812 -13.4375 28.0625 -13.4375 C 27.667969 -13.4375 27.269531 -13.4375 26.480469 -13.4375 Z M 39.128906 -13.042969 L 41.105469 -10.867188 L 40.511719 -6.324219 L 39.324219 -5.535156 C 38.929688 -9.878906 38.734375 -12.253906 39.128906 -13.042969 Z M 29.445312 -10.472656 C 29.246094 -10.671875 29.246094 -11.460938 29.640625 -12.84375 L 31.222656 -11.265625 C 31.617188 -10.472656 31.617188 -10.078125 31.027344 -9.878906 C 30.234375 -9.484375 29.640625 -9.683594 29.445312 -10.472656 Z M 75.6875 -10.472656 L 75.6875 -12.449219 C 76.28125 -11.855469 76.28125 -11.265625 75.6875 -10.472656 Z M 85.371094 -6.917969 C 85.371094 -7.113281 85.171875 -7.507812 84.976562 -8.300781 C 84.777344 -8.894531 84.578125 -9.289062 84.578125 -9.683594 C 84.578125 -10.078125 84.578125 -10.472656 84.578125 -11.066406 C 84.578125 -11.460938 84.976562 -12.054688 85.371094 -12.449219 L 87.148438 -7.90625 C 86.160156 -7.3125 85.566406 -6.917969 85.371094 -6.917969 Z M 96.4375 -7.507812 C 96.042969 -7.3125 95.25 -7.3125 94.460938 -7.3125 C 94.066406 -9.289062 94.066406 -10.867188 94.855469 -12.449219 L 97.425781 -12.449219 L 97.820312 -10.472656 C 98.214844 -8.894531 97.820312 -7.90625 96.4375 -7.507812 Z M 23.714844 -6.917969 L 21.34375 -6.324219 C 21.34375 -6.71875 21.144531 -7.707031 21.144531 -8.894531 C 21.144531 -10.078125 21.144531 -10.867188 21.144531 -11.660156 C 21.539062 -11.460938 21.933594 -11.265625 22.332031 -11.066406 C 22.726562 -10.867188 22.726562 -10.671875 22.726562 -10.277344 C 22.332031 -9.484375 22.726562 -8.496094 23.515625 -7.3125 C 23.515625 -7.113281 23.714844 -6.917969 23.714844 -6.917969 Z M 32.605469 -6.519531 C 31.222656 -6.71875 30.433594 -6.917969 30.039062 -6.917969 C 30.234375 -7.90625 30.828125 -8.300781 31.617188 -8.300781 C 32.410156 -8.300781 32.605469 -7.707031 32.605469 -6.519531 Z M 32.605469 -6.519531 "/></g></g></g></svg>